<svg width="32" height="32" viewBox="0 0 32 32" fill="none" xmlns="http://www.w3.org/2000/svg">
<path d="M5.99935 27.3333H26.666C27.0196 27.3333 27.3588 27.1929 27.6088 26.9428C27.8589 26.6928 27.9993 26.3536 27.9993 26V10H4.66602V26C4.66602 26.3536 4.80649 26.6928 5.05654 26.9428C5.30659 27.1929 5.64573 27.3333 5.99935 27.3333Z" fill="url(#paint0_linear)"/>
<path d="M5.99935 26H26.666C27.0196 26 27.3588 25.8595 27.6088 25.6095C27.8589 25.3594 27.9993 25.0203 27.9993 24.6667V8.66668H4.66602V24.6667C4.66602 25.0203 4.80649 25.3594 5.05654 25.6095C5.30659 25.8595 5.64573 26 5.99935 26Z" fill="url(#paint1_linear)"/>
<path d="M27.9993 6.00002V8.66668H4.66602V6.00002C4.66707 5.64672 4.80789 5.30819 5.05771 5.05837C5.30753 4.80855 5.64605 4.66774 5.99935 4.66668H26.666C27.0193 4.66774 27.3578 4.80855 27.6077 5.05837C27.8575 5.30819 27.9983 5.64672 27.9993 6.00002Z" fill="url(#paint2_linear)"/>
<path d="M16.6654 11.3334H15.9987C15.6305 11.3334 15.332 11.6318 15.332 12V12.6667C15.332 13.0349 15.6305 13.3334 15.9987 13.3334H16.6654C17.0336 13.3334 17.332 13.0349 17.332 12.6667V12C17.332 11.6318 17.0336 11.3334 16.6654 11.3334Z" fill="#ABCCB3"/>
<path d="M13.9993 11.3334H13.3327C12.9645 11.3334 12.666 11.6318 12.666 12V12.6667C12.666 13.0349 12.9645 13.3334 13.3327 13.3334H13.9993C14.3675 13.3334 14.666 13.0349 14.666 12.6667V12C14.666 11.6318 14.3675 11.3334 13.9993 11.3334Z" fill="#ABCCB3"/>
<path d="M19.3333 11.3334H18.6667C18.2985 11.3334 18 11.6318 18 12V12.6667C18 13.0349 18.2985 13.3334 18.6667 13.3334H19.3333C19.7015 13.3334 20 13.0349 20 12.6667V12C20 11.6318 19.7015 11.3334 19.3333 11.3334Z" fill="#ABCCB3"/>
<path d="M21.9993 11.3334H21.3327C20.9645 11.3334 20.666 11.6318 20.666 12V12.6667C20.666 13.0349 20.9645 13.3334 21.3327 13.3334H21.9993C22.3675 13.3334 22.666 13.0349 22.666 12.6667V12C22.666 11.6318 22.3675 11.3334 21.9993 11.3334Z" fill="#6EDB8D"/>
<path d="M24.6654 11.3334H23.9987C23.6305 11.3334 23.332 11.6318 23.332 12V12.6667C23.332 13.0349 23.6305 13.3334 23.9987 13.3334H24.6654C25.0336 13.3334 25.332 13.0349 25.332 12.6667V12C25.332 11.6318 25.0336 11.3334 24.6654 11.3334Z" fill="#6EDB8D"/>
<path d="M8.66536 14H7.9987C7.63051 14 7.33203 14.2985 7.33203 14.6667V15.3333C7.33203 15.7015 7.63051 16 7.9987 16H8.66536C9.03355 16 9.33203 15.7015 9.33203 15.3333V14.6667C9.33203 14.2985 9.03355 14 8.66536 14Z" fill="#ABCCB3"/>
<path d="M11.3333 14H10.6667C10.2985 14 10 14.2985 10 14.6667V15.3333C10 15.7015 10.2985 16 10.6667 16H11.3333C11.7015 16 12 15.7015 12 15.3333V14.6667C12 14.2985 11.7015 14 11.3333 14Z" fill="#ABCCB3"/>
<path d="M13.9993 14H13.3327C12.9645 14 12.666 14.2985 12.666 14.6667V15.3333C12.666 15.7015 12.9645 16 13.3327 16H13.9993C14.3675 16 14.666 15.7015 14.666 15.3333V14.6667C14.666 14.2985 14.3675 14 13.9993 14Z" fill="#ABCCB3"/>
<path d="M16.6654 14H15.9987C15.6305 14 15.332 14.2985 15.332 14.6667V15.3333C15.332 15.7015 15.6305 16 15.9987 16H16.6654C17.0336 16 17.332 15.7015 17.332 15.3333V14.6667C17.332 14.2985 17.0336 14 16.6654 14Z" fill="#ABCCB3"/>
<path d="M19.3333 14H18.6667C18.2985 14 18 14.2985 18 14.6667V15.3333C18 15.7015 18.2985 16 18.6667 16H19.3333C19.7015 16 20 15.7015 20 15.3333V14.6667C20 14.2985 19.7015 14 19.3333 14Z" fill="#ABCCB3"/>
<path d="M21.9993 14H21.3327C20.9645 14 20.666 14.2985 20.666 14.6667V15.3333C20.666 15.7015 20.9645 16 21.3327 16H21.9993C22.3675 16 22.666 15.7015 22.666 15.3333V14.6667C22.666 14.2985 22.3675 14 21.9993 14Z" fill="#6EDB8D"/>
<path d="M24.6654 14H23.9987C23.6305 14 23.332 14.2985 23.332 14.6667V15.3333C23.332 15.7015 23.6305 16 23.9987 16H24.6654C25.0336 16 25.332 15.7015 25.332 15.3333V14.6667C25.332 14.2985 25.0336 14 24.6654 14Z" fill="#6EDB8D"/>
<path d="M8.66536 16.6667H7.9987C7.63051 16.6667 7.33203 16.9652 7.33203 17.3334V18C7.33203 18.3682 7.63051 18.6667 7.9987 18.6667H8.66536C9.03355 18.6667 9.33203 18.3682 9.33203 18V17.3334C9.33203 16.9652 9.03355 16.6667 8.66536 16.6667Z" fill="#ABCCB3"/>
<path d="M11.3333 16.6667H10.6667C10.2985 16.6667 10 16.9652 10 17.3334V18C10 18.3682 10.2985 18.6667 10.6667 18.6667H11.3333C11.7015 18.6667 12 18.3682 12 18V17.3334C12 16.9652 11.7015 16.6667 11.3333 16.6667Z" fill="#ABCCB3"/>
<path d="M16.6654 16.6667H15.9987C15.6305 16.6667 15.332 16.9652 15.332 17.3334V18C15.332 18.3682 15.6305 18.6667 15.9987 18.6667H16.6654C17.0336 18.6667 17.332 18.3682 17.332 18V17.3334C17.332 16.9652 17.0336 16.6667 16.6654 16.6667Z" fill="#ABCCB3"/>
<path d="M19.3333 16.6667H18.6667C18.2985 16.6667 18 16.9652 18 17.3334V18C18 18.3682 18.2985 18.6667 18.6667 18.6667H19.3333C19.7015 18.6667 20 18.3682 20 18V17.3334C20 16.9652 19.7015 16.6667 19.3333 16.6667Z" fill="#ABCCB3"/>
<path d="M21.9993 16.6667H21.3327C20.9645 16.6667 20.666 16.9652 20.666 17.3334V18C20.666 18.3682 20.9645 18.6667 21.3327 18.6667H21.9993C22.3675 18.6667 22.666 18.3682 22.666 18V17.3334C22.666 16.9652 22.3675 16.6667 21.9993 16.6667Z" fill="#6EDB8D"/>
<path d="M24.6654 16.6667H23.9987C23.6305 16.6667 23.332 16.9652 23.332 17.3334V18C23.332 18.3682 23.6305 18.6667 23.9987 18.6667H24.6654C25.0336 18.6667 25.332 18.3682 25.332 18V17.3334C25.332 16.9652 25.0336 16.6667 24.6654 16.6667Z" fill="#6EDB8D"/>
<path d="M8.66536 19.3334H7.9987C7.63051 19.3334 7.33203 19.6319 7.33203 20V20.6667C7.33203 21.0349 7.63051 21.3334 7.9987 21.3334H8.66536C9.03355 21.3334 9.33203 21.0349 9.33203 20.6667V20C9.33203 19.6319 9.03355 19.3334 8.66536 19.3334Z" fill="#ABCCB3"/>
<path d="M11.3333 19.3334H10.6667C10.2985 19.3334 10 19.6319 10 20V20.6667C10 21.0349 10.2985 21.3334 10.6667 21.3334H11.3333C11.7015 21.3334 12 21.0349 12 20.6667V20C12 19.6319 11.7015 19.3334 11.3333 19.3334Z" fill="#ABCCB3"/>
<path d="M11.3333 22H10.6667C10.2985 22 10 22.2985 10 22.6667V23.3333C10 23.7015 10.2985 24 10.6667 24H11.3333C11.7015 24 12 23.7015 12 23.3333V22.6667C12 22.2985 11.7015 22 11.3333 22Z" fill="#ABCCB3"/>
<path d="M13.9993 22H13.3327C12.9645 22 12.666 22.2985 12.666 22.6667V23.3333C12.666 23.7015 12.9645 24 13.3327 24H13.9993C14.3675 24 14.666 23.7015 14.666 23.3333V22.6667C14.666 22.2985 14.3675 22 13.9993 22Z" fill="#ABCCB3"/>
<path d="M16.6654 22H15.9987C15.6305 22 15.332 22.2985 15.332 22.6667V23.3333C15.332 23.7015 15.6305 24 15.9987 24H16.6654C17.0336 24 17.332 23.7015 17.332 23.3333V22.6667C17.332 22.2985 17.0336 22 16.6654 22Z" fill="#ABCCB3"/>
<path d="M13.9993 19.3334H13.3327C12.9645 19.3334 12.666 19.6319 12.666 20V20.6667C12.666 21.0349 12.9645 21.3334 13.3327 21.3334H13.9993C14.3675 21.3334 14.666 21.0349 14.666 20.6667V20C14.666 19.6319 14.3675 19.3334 13.9993 19.3334Z" fill="#ABCCB3"/>
<path d="M16.6654 19.3334H15.9987C15.6305 19.3334 15.332 19.6319 15.332 20V20.6667C15.332 21.0349 15.6305 21.3334 15.9987 21.3334H16.6654C17.0336 21.3334 17.332 21.0349 17.332 20.6667V20C17.332 19.6319 17.0336 19.3334 16.6654 19.3334Z" fill="#ABCCB3"/>
<path d="M8.66536 22H7.9987C7.63051 22 7.33203 22.2985 7.33203 22.6667V23.3333C7.33203 23.7015 7.63051 24 7.9987 24H8.66536C9.03355 24 9.33203 23.7015 9.33203 23.3333V22.6667C9.33203 22.2985 9.03355 22 8.66536 22Z" fill="#ABCCB3"/>
<path d="M19.3333 19.3334H18.6667C18.2985 19.3334 18 19.6319 18 20V20.6667C18 21.0349 18.2985 21.3334 18.6667 21.3334H19.3333C19.7015 21.3334 20 21.0349 20 20.6667V20C20 19.6319 19.7015 19.3334 19.3333 19.3334Z" fill="#ABCCB3"/>
<path d="M21.9993 19.3334H21.3327C20.9645 19.3334 20.666 19.6319 20.666 20V20.6667C20.666 21.0349 20.9645 21.3334 21.3327 21.3334H21.9993C22.3675 21.3334 22.666 21.0349 22.666 20.6667V20C22.666 19.6319 22.3675 19.3334 21.9993 19.3334Z" fill="#6EDB8D"/>
<path d="M15.9987 17.6667C15.9987 18.1282 15.8619 18.5793 15.6055 18.963C15.3491 19.3467 14.9847 19.6458 14.5583 19.8224C14.1319 19.999 13.6628 20.0452 13.2102 19.9552C12.7575 19.8652 12.3418 19.6429 12.0154 19.3166C11.6891 18.9903 11.4669 18.5745 11.3769 18.1219C11.2868 17.6693 11.333 17.2001 11.5096 16.7738C11.6863 16.3474 11.9853 15.983 12.369 15.7266C12.7527 15.4702 13.2039 15.3334 13.6654 15.3334C14.2842 15.3334 14.8777 15.5792 15.3153 16.0168C15.7529 16.4544 15.9987 17.0479 15.9987 17.6667Z" fill="#C45C39"/>
<path d="M24.6654 19.3334H23.9987C23.6305 19.3334 23.332 19.6319 23.332 20V20.6667C23.332 21.0349 23.6305 21.3334 23.9987 21.3334H24.6654C25.0336 21.3334 25.332 21.0349 25.332 20.6667V20C25.332 19.6319 25.0336 19.3334 24.6654 19.3334Z" fill="#6EDB8D"/>
<path d="M13.9993 16.6667H13.3327C12.9645 16.6667 12.666 16.9652 12.666 17.3334V18C12.666 18.3682 12.9645 18.6667 13.3327 18.6667H13.9993C14.3675 18.6667 14.666 18.3682 14.666 18V17.3334C14.666 16.9652 14.3675 16.6667 13.9993 16.6667Z" fill="#ABCCB3"/>
<defs>
<linearGradient id="paint0_linear" x1="16.3327" y1="10" x2="16.3327" y2="27.3333" gradientUnits="userSpaceOnUse">
<stop offset="0.799" stop-color="#708075"/>
<stop offset="0.96" stop-color="#ADB4AF"/>
<stop offset="1" stop-color="#BDC2BE"/>
</linearGradient>
<linearGradient id="paint1_linear" x1="16.3327" y1="8.66668" x2="16.3327" y2="26" gradientUnits="userSpaceOnUse">
<stop offset="0.006" stop-color="#8CAB95"/>
<stop offset="0.017" stop-color="#A8C6B1"/>
<stop offset="0.028" stop-color="#BFDBC8"/>
<stop offset="0.038" stop-color="#C2DCCA"/>
<stop offset="0.114" stop-color="#D3E4D8"/>
<stop offset="0.209" stop-color="#DEE9E2"/>
<stop offset="0.342" stop-color="#E5ECE7"/>
<stop offset="0.712" stop-color="#E7EDE9"/>
</linearGradient>
<linearGradient id="paint2_linear" x1="16.3327" y1="8.66668" x2="16.3327" y2="4.66668" gradientUnits="userSpaceOnUse">
<stop offset="0.865" stop-color="#2CC759"/>
<stop offset="0.909" stop-color="#42D46C"/>
<stop offset="1" stop-color="#78F59B"/>
</linearGradient>
</defs>
</svg>
