<svg width="32" height="32" viewBox="0 0 32 32" fill="none" xmlns="http://www.w3.org/2000/svg">
<path d="M21.7764 28.0947C21.7764 28.922 19.2971 29.5927 16.2384 29.5927C13.1798 29.5927 10.7004 28.922 10.7004 28.0947C10.7004 27.9027 10.7004 27.6733 10.7004 27.6733C10.7004 27.6733 13.8898 26.5967 16.2384 26.5967C18.6444 26.5967 21.7718 27.694 21.7718 27.694C21.7718 27.694 21.7764 27.918 21.7764 28.0947Z" fill="url(#paint0_radial)"/>
<path d="M16.2382 29.1713C19.2967 29.1713 21.7762 28.5006 21.7762 27.6733C21.7762 26.846 19.2967 26.1753 16.2382 26.1753C13.1796 26.1753 10.7002 26.846 10.7002 27.6733C10.7002 28.5006 13.1796 29.1713 16.2382 29.1713Z" fill="url(#paint1_radial)"/>
<path d="M16.2376 27.8679C15.8716 27.8679 15.5742 27.5713 15.5742 27.2046V18.3113C15.5742 17.9453 15.8709 17.6479 16.2376 17.6479C16.6036 17.6479 16.9009 17.9446 16.9009 18.3113V27.2046C16.9009 27.5713 16.6042 27.8679 16.2376 27.8679Z" fill="url(#paint2_radial)"/>
<path d="M16.2209 6.21929C18.5699 6.21929 20.4742 5.95066 20.4742 5.61929C20.4742 5.28792 18.5699 5.01929 16.2209 5.01929C13.8718 5.01929 11.9675 5.28792 11.9675 5.61929C11.9675 5.95066 13.8718 6.21929 16.2209 6.21929Z" fill="url(#paint3_radial)"/>
<path d="M16.0491 3.95254C15.1964 2.88254 13.8298 2.26254 12.3711 2.43654C10.1304 2.70321 8.53043 4.73654 8.7971 6.97721C8.8671 7.56321 9.05977 8.10387 9.34377 8.58054L16.0491 3.95254Z" fill="#FF7D0A"/>
<path d="M15.4815 4.34467C14.7709 3.478 13.6489 2.97867 12.4529 3.12134C10.5902 3.34334 9.26021 5.03334 9.48221 6.896C9.53821 7.36667 9.68888 7.80334 9.91154 8.18934L15.4815 4.34467Z" fill="#FEEA7C"/>
<path d="M12.5458 5.67393L11.3751 3.99193C11.2938 3.8746 11.3331 3.70993 11.4631 3.65126C11.6464 3.56793 11.9584 3.46726 12.4664 3.4066C12.9671 3.34726 13.3078 3.3746 13.5158 3.4126C13.6578 3.4386 13.7371 3.5886 13.6851 3.72326L12.9518 5.6246C12.8851 5.79793 12.6518 5.82593 12.5458 5.67393Z" fill="#FFC000"/>
<path d="M12.1111 6.22266L10.0618 6.24332C9.91912 6.24466 9.80512 6.11999 9.82979 5.97932C9.86379 5.78132 9.95646 5.46666 10.1925 5.01265C10.4251 4.56532 10.6391 4.29932 10.7885 4.14865C10.8898 4.04599 11.0585 4.06465 11.1405 4.18332L12.2991 5.85932C12.4045 6.01199 12.2965 6.22066 12.1111 6.22266Z" fill="#FFC000"/>
<path d="M12.2391 6.58265C12.2098 6.48865 12.1298 6.41265 12.0164 6.41665L9.96843 6.49132C9.82576 6.49666 9.71776 6.62666 9.7491 6.76599C9.79243 6.96199 9.89976 7.27265 10.1564 7.71465C10.2024 7.79399 10.2464 7.86065 10.2904 7.92865L12.2391 6.58265Z" fill="#FFC000"/>
<path d="M15.2405 4.51C15.1865 4.43933 15.1305 4.36733 15.0638 4.29C14.7305 3.902 14.4725 3.69933 14.3011 3.59333C14.1798 3.51866 14.0211 3.57733 13.9698 3.71066L13.2258 5.62066C13.1898 5.71266 13.2185 5.80333 13.2785 5.864L15.2405 4.51Z" fill="#FFC000"/>
<path d="M21.0258 11.6681C20.3678 9.2921 20.4404 6.08277 20.4524 5.67877C20.2418 5.98277 18.4278 6.21943 16.2204 6.21943C13.9091 6.21943 12.0331 5.95943 11.9731 5.63477H11.9718C11.9718 5.63477 12.1031 9.1281 11.3998 11.6674C11.0684 12.8634 9.70777 14.5328 9.73377 16.6568C9.7731 19.8734 12.0711 22.2514 16.2018 22.2514C16.2058 22.2514 16.2091 22.2508 16.2131 22.2508C16.2171 22.2508 16.2204 22.2514 16.2244 22.2514C20.3558 22.2514 22.6531 19.8734 22.6924 16.6568C22.7178 14.5334 21.3571 12.8641 21.0258 11.6681Z" fill="url(#paint4_radial)"/>
<path d="M21.0751 13.2688C20.8211 12.7574 20.5818 12.2741 20.4571 11.8248C20.1598 10.7521 20.0091 9.53609 19.9311 8.46143H12.4918C12.4138 9.53609 12.2631 10.7514 11.9658 11.8248C11.8418 12.2741 11.6018 12.7568 11.3478 13.2688C10.8591 14.2534 10.3051 15.3694 10.3211 16.6501C10.3591 19.7421 12.6118 21.6628 16.2005 21.6628H16.2171L16.2505 21.6634C19.8118 21.6628 22.0651 19.7421 22.1025 16.6501C22.1178 15.3694 21.5638 14.2534 21.0751 13.2688Z" fill="url(#paint5_linear)"/>
<path d="M16.212 9.09866C18.2661 9.09866 19.9313 8.82168 19.9313 8.48C19.9313 8.13831 18.2661 7.86133 16.212 7.86133C14.1579 7.86133 12.4927 8.13831 12.4927 8.48C12.4927 8.82168 14.1579 9.09866 16.212 9.09866Z" fill="url(#paint6_radial)"/>
<path d="M13.7775 6.13867C13.7775 6.13867 14.0689 8.68267 13.2209 11.9247C12.6969 13.928 11.6309 14.7953 11.6309 16.942C11.6309 19.866 14.2102 20.546 14.2102 20.546C14.2102 20.546 13.1415 19.486 13.1415 17.0833C13.1415 14.592 14.1715 13.5013 14.5462 11.2533C15.0762 8.07334 14.6122 6.152 14.6122 6.152L13.7775 6.13867Z" fill="url(#paint7_linear)"/>
<path d="M23.1118 3.61133L20.0338 4.22999C19.5084 4.34133 19.0564 4.67266 18.7884 5.14866L17.0544 8.47999H17.7378L19.3218 5.43733C19.4998 5.12199 19.8051 4.89799 20.1571 4.82399L23.2318 4.20533L23.1118 3.61133Z" fill="#F84577"/>
<path d="M20.4729 5.61938C20.4282 5.80739 20.2116 5.88139 20.0542 5.95739C19.8829 6.03339 19.7062 6.09005 19.5282 6.14672C19.1696 6.24605 18.8049 6.31672 18.4382 6.37872C17.7049 6.50272 16.9616 6.54205 16.2196 6.55005C15.4776 6.54205 14.7336 6.50272 14.0002 6.37939C13.6342 6.31739 13.2696 6.24605 12.9102 6.14739C12.7322 6.09072 12.5556 6.03405 12.3842 5.95805C12.2269 5.88205 12.0102 5.80739 11.9656 5.61938C12.0449 5.78272 12.2556 5.81138 12.4189 5.86605C12.5929 5.91339 12.7736 5.94339 12.9522 5.97139C13.3102 6.03272 13.6729 6.07139 14.0362 6.09805C14.7622 6.15405 15.4909 6.18272 16.2189 6.18205C16.9469 6.18272 17.6756 6.15405 18.4016 6.09872C18.7649 6.07205 19.1276 6.03272 19.4856 5.97139C19.6649 5.94272 19.8449 5.91339 20.0189 5.86539C20.1829 5.81139 20.3936 5.78272 20.4729 5.61938Z" fill="url(#paint8_radial)"/>
<defs>
<radialGradient id="paint0_radial" cx="0" cy="0" r="1" gradientUnits="userSpaceOnUse" gradientTransform="translate(15.9884 23.304) scale(9.214)">
<stop stop-color="#EFF2F7"/>
<stop offset="0.183" stop-color="#C5C9D0"/>
<stop offset="0.347" stop-color="#A6AAB3"/>
<stop offset="0.438" stop-color="#9A9FA8"/>
<stop offset="0.56" stop-color="#7E838A"/>
<stop offset="0.823" stop-color="#393A3E"/>
<stop offset="1" stop-color="#070708"/>
</radialGradient>
<radialGradient id="paint1_radial" cx="0" cy="0" r="1" gradientUnits="userSpaceOnUse" gradientTransform="translate(16.2382 27.6738) scale(5.37866 1.49903)">
<stop stop-color="#070708"/>
<stop offset="0.08" stop-color="#313336"/>
<stop offset="0.177" stop-color="#5E6167"/>
<stop offset="0.263" stop-color="#7F838A"/>
<stop offset="0.332" stop-color="#9397A0"/>
<stop offset="0.377" stop-color="#9A9FA8"/>
<stop offset="0.418" stop-color="#A0A5AD"/>
<stop offset="1" stop-color="#EFF2F7"/>
</radialGradient>
<radialGradient id="paint2_radial" cx="0" cy="0" r="1" gradientUnits="userSpaceOnUse" gradientTransform="translate(16.2616 24.6766) scale(2.68401 4.13551)">
<stop stop-color="#EFF2F7"/>
<stop offset="0.211" stop-color="#C5C9D0"/>
<stop offset="0.4" stop-color="#A6AAB3"/>
<stop offset="0.505" stop-color="#9A9FA8"/>
<stop offset="0.612" stop-color="#7E838A"/>
<stop offset="0.844" stop-color="#393A3E"/>
<stop offset="1" stop-color="#070708"/>
</radialGradient>
<radialGradient id="paint3_radial" cx="0" cy="0" r="1" gradientUnits="userSpaceOnUse" gradientTransform="translate(16.2581 6.6971) scale(9.42724 3.22729)">
<stop stop-color="#EFF2F7"/>
<stop offset="0.114" stop-color="#E7EAEF"/>
<stop offset="0.294" stop-color="#D0D4DA"/>
<stop offset="0.517" stop-color="#ABAFB8"/>
<stop offset="0.605" stop-color="#9A9FA8"/>
<stop offset="0.699" stop-color="#6A6E74"/>
<stop offset="0.796" stop-color="#404246"/>
<stop offset="0.882" stop-color="#212224"/>
<stop offset="0.953" stop-color="#0E0E0F"/>
<stop offset="1" stop-color="#070708"/>
</radialGradient>
<radialGradient id="paint4_radial" cx="0" cy="0" r="1" gradientUnits="userSpaceOnUse" gradientTransform="translate(16.1064 8.53771) scale(10.838 14.7754)">
<stop stop-color="#EFF2F7"/>
<stop offset="0.122" stop-color="#E7EAF0"/>
<stop offset="0.312" stop-color="#D1D5DB"/>
<stop offset="0.545" stop-color="#ADB2BA"/>
<stop offset="0.653" stop-color="#9A9FA8"/>
<stop offset="0.697" stop-color="#9599A2"/>
<stop offset="0.755" stop-color="#858A92"/>
<stop offset="0.82" stop-color="#6C7076"/>
<stop offset="0.892" stop-color="#494C50"/>
<stop offset="0.967" stop-color="#1D1E20"/>
<stop offset="1" stop-color="#070708"/>
</radialGradient>
<linearGradient id="paint5_linear" x1="16.2111" y1="8.63209" x2="16.2111" y2="20.4134" gradientUnits="userSpaceOnUse">
<stop offset="0.256" stop-color="#F0C413"/>
<stop offset="0.551" stop-color="#E27914"/>
<stop offset="0.858" stop-color="#D43116"/>
<stop offset="1" stop-color="#CF1416"/>
</linearGradient>
<radialGradient id="paint6_radial" cx="0" cy="0" r="1" gradientUnits="userSpaceOnUse" gradientTransform="translate(16.1061 8.48004) scale(11.5789 4.61694)">
<stop offset="0.087" stop-color="#F2DF79"/>
<stop offset="0.26" stop-color="#F2DE75"/>
<stop offset="0.415" stop-color="#F2DB6A"/>
<stop offset="0.564" stop-color="#F1D658"/>
<stop offset="0.708" stop-color="#F1CF3E"/>
<stop offset="0.849" stop-color="#F0C71D"/>
<stop offset="0.887" stop-color="#F0C413"/>
</radialGradient>
<linearGradient id="paint7_linear" x1="13.1655" y1="20.7947" x2="13.2415" y2="8.36867" gradientUnits="userSpaceOnUse">
<stop stop-color="white" stop-opacity="0"/>
<stop offset="0.729" stop-color="white" stop-opacity="0.68"/>
<stop offset="0.75" stop-color="white" stop-opacity="0.7"/>
</linearGradient>
<radialGradient id="paint8_radial" cx="0" cy="0" r="1" gradientUnits="userSpaceOnUse" gradientTransform="translate(16.2186 5.45109) scale(5.1522 1.76391)">
<stop stop-color="#EFF2F7"/>
<stop offset="0.109" stop-color="#E6EAEF"/>
<stop offset="0.282" stop-color="#CFD3DA"/>
<stop offset="0.497" stop-color="#AAAEB7"/>
<stop offset="0.577" stop-color="#9A9FA8"/>
<stop offset="0.776" stop-color="#57595F"/>
<stop offset="1" stop-color="#070708"/>
</radialGradient>
</defs>
</svg>
