<svg width="375" height="150" viewBox="0 0 375 150" fill="none" xmlns="http://www.w3.org/2000/svg">
<g clip-path="url(#clip0_3801_12227)">
<path d="M0 0H375V142C375 146.418 371.418 150 367 150H5C2.23857 150 0 147.761 0 145V0Z" fill="#F7FAF9" fill-opacity="0.02"/>
<mask id="mask0_3801_12227" style="mask-type:alpha" maskUnits="userSpaceOnUse" x="-57" y="-167" width="450" height="484">
<path opacity="0.0344828" d="M121.174 295.809L103.351 193.979C100.988 180.477 88.3377 171.287 74.7667 173.211L-27.5869 187.727C-51.8896 191.174 -65.4952 160.615 -46.6722 144.861L32.6032 78.5104C43.1143 69.713 44.7487 54.1624 36.2964 43.3719L-27.4516 -38.0109C-42.5879 -57.3343 -22.926 -84.3965 0.129047 -75.9724L97.2279 -40.4931C110.102 -35.789 124.387 -42.1488 129.505 -54.864L168.111 -150.763C177.277 -173.533 210.545 -170.036 214.777 -145.858L232.6 -44.0282C234.964 -30.5267 247.614 -21.3359 261.185 -23.2606L363.538 -37.7766C387.841 -41.2232 401.446 -10.6644 382.623 5.08974L303.348 71.4402C292.837 80.2376 291.203 95.7882 299.655 106.579L363.403 187.962C378.539 207.285 358.877 234.347 335.822 225.923L238.723 190.444C225.849 185.74 211.565 192.099 206.446 204.815L167.84 300.713C158.674 323.483 125.406 319.987 121.174 295.809Z" stroke="white"/>
<path opacity="0.0689655" d="M110.271 289.309L98.1201 189.307C96.4668 175.7 84.3151 165.86 70.662 167.072L-29.6813 175.978C-54.1311 178.148 -66.1188 146.919 -46.497 132.172L34.0318 71.6471C44.9889 63.4119 47.4349 47.9682 39.5589 36.7501L-18.3255 -45.6968C-32.4296 -65.7859 -11.3784 -91.7821 11.2041 -82.1628L103.884 -42.685C116.495 -37.3135 131.092 -42.917 136.87 -55.3469L179.328 -146.7C189.674 -168.959 222.713 -163.726 225.674 -139.359L237.825 -39.3571C239.478 -25.7504 251.63 -15.9102 265.283 -17.122L365.626 -26.0279C390.076 -28.1979 402.064 3.03106 382.442 17.7785L301.913 78.3029C290.956 86.5381 288.51 101.982 296.386 113.2L354.271 195.647C368.375 215.736 347.323 241.732 324.741 232.113L232.061 192.635C219.45 187.264 204.853 192.867 199.076 205.297L156.617 296.65C146.271 318.909 113.232 313.676 110.271 289.309Z" stroke="white"/>
<path opacity="0.103448" d="M99.9229 282.284L93.2028 184.416C92.2639 170.742 80.6438 160.279 66.946 160.775L-31.0875 164.321C-55.6173 165.209 -65.9542 133.395 -45.5875 119.695L35.8079 64.9415C47.181 57.2911 50.432 41.9965 43.1539 30.3816L-8.93436 -52.7446C-21.9678 -73.5443 0.415099 -98.4031 22.4632 -87.6151L110.579 -44.5013C122.891 -38.4772 137.762 -43.309 144.182 -55.4195L190.127 -142.092C201.623 -163.78 234.343 -156.825 236.024 -132.337L242.744 -34.4693C243.683 -20.7947 255.303 -10.332 269.001 -10.8276L367.035 -14.3742C391.565 -15.2617 401.901 16.5519 381.535 30.2522L300.139 85.0055C288.766 92.656 285.515 107.951 292.793 119.565L344.882 202.692C357.915 223.491 335.532 248.35 313.484 237.562L225.368 194.448C213.056 188.424 198.185 193.256 191.766 205.367L145.821 292.039C134.324 313.727 101.604 306.772 99.9229 282.284Z" stroke="white"/>
<path opacity="0.137931" d="M90.1499 274.775L88.6038 179.33C88.3818 165.625 77.3253 154.568 63.6203 154.346L-31.8247 152.8C-56.3674 152.403 -65.0252 120.092 -43.9694 107.476L37.9154 58.4148C49.6733 51.37 53.7203 36.2665 47.06 24.2866L0.676493 -59.1442C-11.2505 -80.5976 12.4027 -104.251 33.856 -92.3238L117.287 -45.9402C129.267 -39.28 144.37 -43.327 151.415 -55.0848L200.477 -136.97C213.092 -158.025 245.403 -149.368 245.801 -124.825L247.347 -29.38C247.569 -15.675 258.625 -4.61851 272.33 -4.3965L367.775 -2.85041C392.318 -2.45286 400.976 29.8581 379.92 42.4737L298.035 91.5352C286.277 98.58 282.23 113.683 288.891 125.663L335.274 209.094C347.201 230.548 323.548 254.201 302.095 242.274L218.664 195.89C206.684 189.23 191.58 193.277 184.536 205.035L135.474 286.92C122.858 307.975 90.5475 299.318 90.1499 274.775Z" stroke="white"/>
<path opacity="0.172414" d="M80.9706 266.819L84.3264 174.062C84.8219 160.364 74.3592 148.744 60.6846 147.805L-31.9148 141.447C-56.403 139.765 -63.3578 107.046 -41.6707 95.5492L40.337 52.077C52.4474 45.6572 57.2793 30.7863 51.2552 18.4742L10.462 -64.8983C-0.325962 -86.9465 24.5328 -109.33 45.3325 -96.296L123.984 -47.0115C135.599 -39.7334 150.894 -42.9843 158.544 -54.3574L210.35 -131.372C224.051 -151.738 255.864 -141.402 254.977 -116.872L251.621 -24.1149C251.126 -10.4171 261.588 1.20296 275.263 2.14193L367.862 8.50025C392.351 10.1817 399.305 42.9015 377.618 54.3979L295.611 97.8701C283.5 104.29 278.668 119.161 284.692 131.473L325.486 214.845C336.273 236.894 311.415 259.277 290.615 246.243L211.963 196.959C200.348 189.68 185.054 192.931 177.403 204.304L125.597 281.319C111.897 301.685 80.0832 291.349 80.9706 266.819Z" stroke="white"/>
<path opacity="0.206897" d="M72.4075 258.462L80.3798 168.638C81.5915 154.984 71.7513 142.833 58.1446 141.179L-31.3745 130.302C-55.7411 127.341 -60.9739 94.3023 -38.7148 83.9567L43.0616 45.9487C55.4914 40.1716 61.0949 25.5739 55.7234 12.9635L20.3841 -70.0009C10.7649 -92.5834 36.761 -113.635 56.8501 -99.5306L130.654 -47.7142C141.872 -39.8382 157.316 -42.2843 165.551 -53.2414L219.731 -125.328C234.478 -144.95 265.707 -132.962 263.537 -108.513L255.565 -18.6884C254.353 -5.03522 264.193 7.11646 277.8 8.76981L367.319 19.6473C391.686 22.6081 396.918 55.647 374.659 65.9926L292.883 104.001C280.453 109.778 274.85 124.375 280.221 136.986L315.561 219.95C325.18 242.533 299.184 263.584 279.095 249.48L205.291 197.663C194.072 189.788 178.629 192.234 170.394 203.191L116.214 275.278C101.466 294.899 70.2375 282.912 72.4075 258.462Z" stroke="white"/>
<path opacity="0.241379" d="M64.4804 249.744L76.7721 163.074C78.6967 149.503 69.506 136.853 56.0044 134.49L-30.2221 119.398C-54.4004 115.166 -57.8969 81.8982 -35.1269 72.7317L46.0775 40.0416C58.7926 34.9229 65.1525 20.6384 60.4483 7.76417L30.4055 -74.4564C21.9813 -97.5114 49.0436 -117.173 68.367 -102.037L137.28 -48.057C148.07 -39.6047 163.621 -41.2391 172.418 -51.7502L228.602 -118.878C244.356 -137.701 274.915 -124.096 271.468 -99.793L259.176 -13.1229C257.252 0.448054 266.442 13.098 279.944 15.4612L366.171 30.5537C390.349 34.7857 393.845 68.0532 371.075 77.2196L289.871 109.91C277.156 115.028 270.796 129.313 275.5 142.187L305.543 224.408C313.967 247.463 286.905 267.125 267.581 251.988L198.669 198.008C187.878 189.556 172.328 191.19 163.53 201.702L107.347 268.83C91.5925 287.653 61.0337 274.047 64.4804 249.744Z" stroke="white"/>
<path opacity="0.275862" d="M57.1976 240.708L73.5014 157.391C76.1337 143.94 67.6176 130.826 54.2582 127.759L-28.4871 108.766C-52.4108 103.274 -54.1614 69.8691 -30.9428 61.9069L49.3638 34.3679C62.3294 29.9217 69.4281 15.9896 65.4042 2.88682L40.4807 -78.2697C33.2747 -101.734 61.3288 -119.953 79.8336 -103.826L143.836 -48.0477C154.17 -39.0422 169.785 -39.8605 179.12 -49.8968L236.942 -112.059C253.66 -130.032 283.464 -114.846 278.751 -90.7568L262.447 -7.43974C259.814 6.01196 268.331 19.1256 281.69 22.1922L364.435 41.186C388.359 46.6776 390.11 80.0825 366.891 88.0447L286.584 115.584C273.619 120.03 266.52 133.962 270.544 147.065L295.467 228.221C302.673 251.686 274.619 269.904 256.115 253.777L192.112 197.999C181.778 188.994 166.164 189.812 156.828 199.848L99.0063 262.011C82.2886 279.984 52.4838 264.797 57.1976 240.708Z" stroke="white"/>
<path opacity="0.310345" d="M50.5726 231.397L70.5726 151.608C73.9053 138.313 66.0871 124.771 52.9066 121.01L-26.1926 98.4358C-49.796 91.6997 -49.796 58.2489 -26.1926 51.5128L52.9066 28.9389C66.0872 25.1774 73.9053 11.636 70.5726 -1.65949L50.5726 -81.4483C44.6045 -105.258 73.5737 -121.983 91.2091 -104.91L150.308 -47.6948C160.156 -38.1609 175.792 -38.1609 185.64 -47.6948L244.739 -104.91C262.375 -121.983 291.344 -105.258 285.376 -81.4483L265.376 -1.65949C262.043 11.636 269.861 25.1774 283.042 28.9389L362.141 51.5128C385.744 58.2489 385.744 91.6996 362.141 98.4358L283.042 121.01C269.861 124.771 262.043 138.313 265.376 151.608L285.376 231.397C291.344 255.206 262.375 271.931 244.739 254.858L185.64 197.643C175.792 188.109 160.156 188.109 150.308 197.643L91.2091 254.858C73.5737 271.931 44.6045 255.206 50.5726 231.397Z" stroke="white"/>
<path opacity="0.344828" d="M44.6138 221.856L67.9872 145.747C72.0111 132.645 64.9124 118.713 51.9468 114.266L-23.3652 88.4402C-46.5838 80.478 -44.8331 47.0731 -20.9094 41.5815L56.6896 23.769C70.0489 20.7024 78.565 7.58868 75.9328 -5.86297L60.643 -83.9982C55.9291 -108.087 85.734 -123.273 102.452 -105.301L156.677 -47.0043C166.013 -36.9681 181.627 -36.1497 191.961 -45.1552L251.983 -97.4641C270.488 -113.591 298.542 -95.3724 291.336 -71.9081L267.963 4.20086C263.939 17.3037 271.037 31.2357 284.003 35.6819L359.315 61.5082C382.534 69.4704 380.783 102.875 356.859 108.367L279.26 126.179C265.901 129.246 257.385 142.36 260.017 155.811L275.307 233.947C280.021 258.036 250.216 273.222 233.498 255.249L179.272 196.953C169.937 186.916 154.322 186.098 143.989 195.104L83.9667 247.412C65.462 263.539 37.4078 245.321 44.6138 221.856Z" stroke="white"/>
<path opacity="0.37931" d="M39.3225 212.131L65.741 139.829C70.4452 126.955 64.0853 112.67 51.3702 107.552L-20.0378 78.8051C-42.8079 69.6386 -39.3114 36.3711 -15.1331 32.1391L60.6912 18.8674C74.1928 16.5042 83.3835 3.85421 81.4589 -9.7168L70.65 -85.9312C67.2034 -110.234 97.7622 -123.84 113.516 -105.016L162.922 -45.9866C171.719 -35.4755 187.27 -33.841 198.061 -42.2934L258.66 -89.7613C277.983 -104.898 305.045 -85.2357 296.621 -62.1807L270.203 10.121C265.499 22.9952 271.858 37.2797 284.574 42.3984L355.982 71.1448C378.752 80.3113 375.255 113.579 351.077 117.811L275.252 131.082C261.751 133.446 252.56 146.096 254.485 159.667L265.294 235.881C268.74 260.184 238.182 273.789 222.427 254.966L173.022 195.936C164.224 185.425 148.674 183.791 137.883 192.243L77.284 239.711C57.9606 254.847 30.8983 235.186 39.3225 212.131Z" stroke="white"/>
<path opacity="0.413793" d="M34.709 202.261L63.8407 133.87C69.2122 121.26 63.6086 106.662 51.1788 100.885L-16.2327 69.5533C-38.4919 59.2077 -33.2591 26.1688 -8.89241 23.208L64.9018 14.2412C78.5085 12.5879 88.3487 0.436217 87.1369 -13.2169L80.565 -87.2628C78.395 -111.713 109.624 -123.7 124.371 -104.079L169.034 -44.6542C177.269 -33.6972 192.713 -31.2511 203.931 -39.1271L264.771 -81.8414C284.86 -95.9456 310.856 -74.8944 301.237 -52.3119L272.105 16.0791C266.734 28.6896 272.337 43.2873 284.767 49.0644L352.178 80.3959C374.438 90.7415 369.205 123.78 344.838 126.741L271.044 135.708C257.437 137.361 247.597 149.513 248.809 163.166L255.381 237.212C257.551 261.662 226.322 273.649 211.574 254.028L166.912 194.603C158.677 183.646 143.233 181.2 132.015 189.076L71.175 231.791C51.0859 245.895 25.0898 224.844 34.709 202.261Z" stroke="white"/>
<path opacity="0.448276" d="M30.7695 192.292L62.2802 127.891C68.3043 115.579 63.4725 100.708 51.362 94.2881L-11.9848 60.708C-33.672 49.2116 -26.7172 16.4918 -2.22894 14.8104L69.2995 9.89885C82.9741 8.9599 93.4368 -2.66011 92.9412 -16.358L90.3491 -88.0079C89.4616 -112.538 121.275 -122.875 134.975 -102.508L174.993 -43.0183C182.644 -31.6452 197.938 -28.3942 209.553 -35.6723L270.308 -73.7422C291.107 -86.7757 315.966 -64.3928 305.178 -42.3446L273.668 22.0566C267.643 34.3686 272.475 49.2396 284.586 55.6594L347.933 89.2395C369.62 100.736 362.665 133.456 338.177 135.137L266.648 140.049C252.974 140.988 242.511 152.608 243.007 166.305L245.599 237.955C246.486 262.485 214.673 272.822 200.972 252.455L160.955 192.966C153.304 181.593 138.01 178.342 126.395 185.62L65.6401 223.69C44.8403 236.723 19.9816 214.34 30.7695 192.292Z" stroke="white"/>
<path opacity="0.482759" d="M27.5007 182.27L61.0559 121.913C67.7162 109.933 63.6692 94.8299 51.9113 87.7851L-7.32666 52.2926C-28.3824 39.677 -19.7247 7.36603 4.81796 6.96848L73.8658 5.84997C87.5708 5.62798 98.6273 -5.42855 98.8493 -19.1335L99.9677 -88.1814C100.365 -112.724 132.676 -121.382 145.292 -100.326L180.784 -41.088C187.829 -29.3301 202.933 -25.2832 214.913 -31.9434L275.269 -65.4987C296.722 -77.4257 320.376 -53.7724 308.449 -32.3191L274.893 28.0373C268.233 40.0172 272.28 55.1206 284.038 62.1654L343.276 97.658C364.332 110.274 355.674 142.585 331.131 142.982L262.083 144.101C248.378 144.323 237.322 155.379 237.1 169.084L235.981 238.132C235.584 262.675 203.273 271.332 190.657 250.276L155.165 191.039C148.12 179.281 133.016 175.234 121.037 181.894L60.6802 215.449C39.2268 227.376 15.5736 203.723 27.5007 182.27Z" stroke="white"/>
<path opacity="0.517241" d="M24.8965 172.231L60.1627 115.951C67.4408 104.336 64.1898 89.0412 52.8167 81.3908L-2.29189 44.3201C-22.6586 30.6198 -12.3217 -1.19372 12.2081 -0.306278L78.5815 2.09499C92.2793 2.59056 103.899 -7.87215 104.838 -21.5468L109.388 -87.8075C111.07 -112.296 143.789 -119.251 155.286 -97.5634L186.393 -38.8817C192.813 -26.7712 207.684 -21.9394 219.996 -27.9635L279.654 -57.1537C301.702 -67.9416 324.085 -43.0828 311.052 -22.2831L275.785 33.9973C268.507 45.6122 271.758 60.9068 283.131 68.5572L338.24 105.628C358.607 119.328 348.27 151.142 323.74 150.254L257.367 147.853C243.669 147.357 232.049 157.82 231.11 171.495L226.56 237.756C224.878 262.244 192.159 269.199 180.662 247.511L149.555 188.83C143.135 176.719 128.264 171.887 115.952 177.912L56.294 207.102C34.2459 217.89 11.863 193.031 24.8965 172.231Z" stroke="white"/>
<path opacity="0.551724" d="M22.9511 162.223L59.5974 110.027C67.4734 98.8085 65.0274 83.3647 54.0703 75.1295L3.08776 36.8117C-16.534 22.0643 -4.54629 -9.16465 19.9035 -6.99464L83.4305 -1.35634C97.0836 -0.144579 109.235 -9.9848 110.889 -23.5915L118.582 -86.9026C121.542 -111.269 154.581 -116.502 164.927 -94.2429L191.807 -36.4078C197.585 -23.9779 212.182 -18.3744 224.793 -23.7459L283.468 -48.7392C306.051 -58.3584 327.102 -32.3623 312.998 -12.2732L276.351 39.9237C268.475 51.1418 270.921 66.5855 281.878 74.8207L332.861 113.139C352.483 127.886 340.495 159.115 316.045 156.945L252.518 151.307C238.865 150.095 226.714 159.935 225.06 173.542L217.367 236.853C214.406 261.219 181.368 266.452 171.022 244.193L144.141 186.358C138.364 173.928 123.767 168.325 111.156 173.696L52.4806 198.689C29.8981 208.309 8.84687 182.313 22.9511 162.223Z" stroke="white"/>
<path opacity="0.586207" d="M21.653 152.284L59.3529 104.155C67.8052 93.3649 66.1708 77.8142 55.6597 69.0169L8.77699 29.7778C-10.046 14.0237 3.55962 -16.5351 27.8623 -13.0884L88.3932 -4.50383C101.964 -2.57918 114.614 -11.7699 116.977 -25.2715L127.518 -85.4926C131.75 -109.671 165.018 -113.167 174.184 -90.3974L197.015 -33.6838C202.134 -20.9686 216.418 -14.6088 229.292 -19.313L286.716 -40.2951C309.771 -48.7192 329.433 -21.657 314.296 -2.33356L276.597 45.7955C268.144 56.586 269.779 72.1366 280.29 80.9339L327.172 120.173C345.995 135.927 332.39 166.486 308.087 163.039L247.556 154.455C233.985 152.53 221.335 161.721 218.972 175.222L208.431 235.443C204.199 259.622 170.932 263.118 161.765 240.348L138.934 183.635C133.816 170.919 119.531 164.56 106.657 169.264L49.2336 190.246C26.1786 198.67 6.51672 171.608 21.653 152.284Z" stroke="white"/>
<path opacity="0.62069" d="M20.987 142.454L59.4197 98.3548C68.4251 88.0214 67.6068 72.4066 57.5705 63.0712L14.7388 23.2304C-3.23397 6.51271 11.9523 -23.2922 36.0414 -18.5783L93.4491 -7.34455C106.901 -4.71229 120.014 -13.2284 123.081 -26.5877L136.168 -83.6015C141.66 -107.525 175.065 -109.276 183.027 -86.0573L202.002 -30.7238C206.448 -17.7582 220.38 -10.6595 233.483 -14.6834L289.402 -31.8564C312.867 -39.0624 331.085 -11.0083 314.958 7.49652L276.526 51.5962C267.52 61.9295 268.339 77.5444 278.375 86.8798L321.207 126.721C339.179 143.438 323.993 173.243 299.904 168.529L242.496 157.296C229.045 154.663 215.931 163.179 212.864 176.539L199.777 233.553C194.285 257.476 160.881 259.227 152.918 236.008L133.943 180.675C129.497 167.709 115.565 160.61 102.462 164.634L46.5432 181.807C23.0788 189.013 4.86024 160.959 20.987 142.454Z" stroke="white"/>
<path opacity="0.655172" d="M20.9436 132.771L59.7952 92.6397C69.3291 82.7918 69.3291 67.1555 59.7952 57.3077L20.9436 17.1767C3.87044 -0.458706 20.5958 -29.428 44.4051 -23.4599L98.5853 -9.87892C111.881 -6.54622 125.422 -14.3644 129.184 -27.5449L144.512 -81.2568C151.249 -104.86 184.699 -104.86 191.435 -81.2569L206.764 -27.5449C210.526 -14.3644 224.067 -6.54623 237.363 -9.87891L291.543 -23.4599C315.352 -29.428 332.078 -0.458785 315.004 17.1766L276.153 57.3077C266.619 67.1555 266.619 82.7918 276.153 92.6397L315.004 132.771C332.078 150.406 315.352 179.375 291.543 173.407L237.363 159.826C224.067 156.494 210.526 164.312 206.764 177.492L191.436 231.204C184.699 254.808 151.249 254.808 144.512 231.204L129.184 177.492C125.422 164.312 111.881 156.494 98.5854 159.826L44.4051 173.407C20.5958 179.375 3.8704 150.406 20.9436 132.771Z" stroke="white"/>
<path opacity="0.689655" d="M21.4872 123.275L60.4528 87.0302C70.489 77.6947 71.3074 62.0799 62.3019 51.7465L27.3384 11.6275C11.2116 -6.87729 29.4302 -34.9315 52.8945 -27.7255L103.766 -12.1026C116.869 -8.07868 130.801 -15.1774 135.247 -28.143L152.509 -78.4818C160.472 -101.7 193.877 -99.9497 199.368 -76.026L211.274 -24.1586C214.341 -10.7992 227.454 -2.28309 240.906 -4.91536L293.132 -15.1351C317.221 -19.849 332.407 9.95587 314.434 26.6736L275.469 62.9181C265.433 72.2535 264.614 87.8684 273.62 98.2017L308.583 138.321C324.71 156.826 306.492 184.88 283.027 177.674L232.156 162.051C219.053 158.027 205.121 165.126 200.675 178.091L183.412 228.43C175.45 251.649 142.045 249.898 136.554 225.974L124.648 174.107C121.581 160.748 108.467 152.231 95.0157 154.864L42.7898 165.083C18.7009 169.797 3.51451 139.992 21.4872 123.275Z" stroke="white"/>
<path opacity="0.724138" d="M22.627 113.999L61.4115 81.538C71.9226 72.7406 73.5571 57.19 65.1048 46.3995L33.9169 6.58396C18.7806 -12.7395 38.4425 -39.8017 61.4975 -31.3776L109.002 -14.0198C121.876 -9.31562 136.161 -15.6754 141.279 -28.3906L160.167 -75.3079C169.333 -98.0779 202.601 -94.5814 206.833 -70.4031L215.553 -20.5842C217.916 -7.08268 230.566 2.10812 244.137 0.183465L294.212 -6.9183C318.515 -10.3649 332.12 20.1938 313.297 35.948L274.513 68.4091C264.002 77.2065 262.367 92.7571 270.82 103.548L302.007 143.363C317.144 162.687 297.482 189.749 274.427 181.325L226.922 163.967C214.048 159.263 199.764 165.623 194.645 178.338L175.758 225.255C166.591 248.025 133.324 244.529 129.092 220.35L120.372 170.531C118.009 157.03 105.359 147.839 91.7876 149.764L41.7124 156.865C17.4097 160.312 3.80402 129.753 22.627 113.999Z" stroke="white"/>
<path opacity="0.758621" d="M24.3277 104.981L62.6475 76.1806C73.6046 67.9455 76.0506 52.5017 68.1746 41.2836L40.6302 2.05109C26.526 -18.038 47.5773 -44.0341 70.1598 -34.4149L114.262 -15.6293C126.872 -10.2578 141.47 -15.8614 147.247 -28.2912L167.451 -71.7617C177.797 -94.0208 210.836 -88.7879 213.797 -64.4212L219.579 -16.835C221.232 -3.22824 233.384 6.61197 247.037 5.4002L294.785 1.16229C319.235 -1.00774 331.223 30.2212 311.601 44.9687L273.281 73.7693C262.324 82.0046 259.878 97.4483 267.754 108.666L295.299 147.899C309.403 167.988 288.352 193.984 265.769 184.365L221.667 165.579C209.057 160.208 194.459 165.811 188.682 178.241L168.478 221.712C158.132 243.971 125.093 238.738 122.132 214.371L116.35 166.785C114.697 153.178 102.545 143.338 88.8919 144.55L41.1433 148.788C16.6936 150.958 4.70592 119.729 24.3277 104.981Z" stroke="white"/>
<path opacity="0.793103" d="M26.5593 96.2502L64.1433 70.968C75.5164 63.3176 78.7673 48.023 71.4892 36.4081L47.4377 -1.97502C34.4042 -22.7748 56.7872 -47.6335 78.8353 -36.8456L119.522 -16.938C131.834 -10.9138 146.705 -15.7457 153.125 -27.8562L174.34 -67.877C185.836 -89.5642 218.556 -82.6094 220.238 -58.1211L223.341 -12.9314C224.28 0.74322 235.9 11.2059 249.597 10.7103L294.864 9.07268C319.394 8.18522 329.731 39.9988 309.364 53.6991L271.78 78.9812C260.407 86.6317 257.156 101.926 264.434 113.541L288.486 151.924C301.519 172.724 279.136 197.583 257.088 186.795L216.401 166.887C204.089 160.863 189.218 165.695 182.798 177.805L161.583 217.826C150.087 239.513 117.367 232.559 115.686 208.07L112.583 162.881C111.644 149.206 100.024 138.743 86.3258 139.239L41.0593 140.877C16.5295 141.764 6.19262 109.95 26.5593 96.2502Z" stroke="white"/>
<path opacity="0.827586" d="M29.3054 87.8393L65.8964 65.9157C77.6542 58.871 81.7012 43.7675 75.041 31.7876L54.314 -5.49428C42.387 -26.9476 66.0402 -50.6008 87.4936 -38.6738L124.775 -17.9469C136.755 -11.2867 151.859 -15.3336 158.904 -27.0915L180.827 -63.6825C193.443 -84.7383 225.754 -76.0805 226.151 -51.5379L226.842 -8.88738C227.064 4.81764 238.121 15.8741 251.826 16.0961L294.476 16.787C319.019 17.1846 327.677 49.4955 306.621 62.1112L270.03 84.0347C258.272 91.0795 254.225 106.183 260.885 118.163L281.612 155.445C293.539 176.898 269.886 200.551 248.433 188.624L211.151 167.897C199.171 161.237 184.067 165.284 177.023 177.042L155.099 213.633C142.483 234.689 110.172 226.031 109.775 201.488L109.084 158.838C108.862 145.133 97.8055 134.076 84.1004 133.854L41.4499 133.163C16.9073 132.766 8.24961 100.455 29.3054 87.8393Z" stroke="white"/>
<path opacity="0.862069" d="M32.5334 79.7759L67.889 61.034C79.9995 54.6142 84.8313 39.7432 78.8072 27.4312L61.2202 -8.51294C50.4323 -30.5611 75.291 -52.944 96.0908 -39.9105L130 -18.6627C141.615 -11.3846 156.909 -14.6355 164.56 -26.0086L186.895 -59.2115C200.595 -79.5782 232.408 -69.2413 231.521 -44.7115L230.074 -4.72161C229.579 8.97623 240.041 20.5962 253.716 21.5352L293.638 24.2764C318.126 25.9579 325.081 58.6777 303.394 70.1741L268.038 88.9161C255.928 95.3358 251.096 110.207 257.12 122.519L274.707 158.463C285.495 180.511 260.636 202.894 239.836 189.861L205.928 168.613C194.313 161.335 179.018 164.586 171.368 175.959L149.033 209.162C135.332 229.528 103.519 219.191 104.406 194.661L105.853 154.672C106.349 140.974 95.8859 129.354 82.2113 128.415L42.2892 125.674C17.801 123.992 10.8462 91.2723 32.5334 79.7759Z" stroke="white"/>
<path opacity="0.896552" d="M36.2147 72.0867L70.1086 56.3335C82.5385 50.5564 88.142 35.9587 82.7705 23.3482L68.1233 -11.0381C58.5041 -33.6207 84.5003 -54.6719 104.589 -40.5677L135.179 -19.0913C146.397 -11.2154 161.841 -13.6614 170.076 -24.6185L192.532 -54.4965C207.279 -74.1182 238.508 -62.1305 236.338 -37.6808L233.034 -0.451194C231.822 13.2019 241.662 25.3536 255.269 27.0069L292.372 31.5153C316.739 34.4761 321.972 67.5151 299.713 77.8606L265.819 93.6139C253.389 99.391 247.785 113.989 253.157 126.599L267.804 160.985C277.423 183.568 251.427 204.619 231.338 190.515L200.748 169.039C189.53 161.163 174.086 163.609 165.851 174.566L143.395 204.444C128.648 224.066 97.419 212.078 99.589 187.628L102.893 150.399C104.105 136.745 94.2648 124.594 80.6581 122.94L43.5551 118.432C19.1884 115.471 13.9556 82.4323 36.2147 72.0867Z" stroke="white"/>
<path opacity="0.931035" d="M40.317 64.7998L72.5398 51.828C85.255 46.7093 91.6148 32.4248 86.9106 19.5506L74.9893 -13.0755C66.5652 -36.1305 93.6274 -55.7924 112.951 -40.6562L140.296 -19.2363C151.087 -10.784 166.637 -12.4184 175.435 -22.9295L197.729 -49.5667C213.483 -68.3897 244.042 -54.7841 240.595 -30.4814L235.718 3.91026C233.793 17.4813 242.984 30.1313 256.485 32.4945L290.701 38.4833C314.879 42.7153 318.376 75.9829 295.606 85.1493L263.383 98.1211C250.668 103.24 244.308 117.524 249.012 130.399L260.934 163.025C269.358 186.08 242.296 205.742 222.972 190.605L195.627 169.185C184.836 160.733 169.286 162.368 160.488 172.879L138.194 199.516C122.44 218.339 91.881 204.733 95.3276 180.431L100.205 146.039C102.13 132.468 92.939 119.818 79.4375 117.455L45.2218 111.466C21.0435 107.234 17.5469 73.9663 40.317 64.7998Z" stroke="white"/>
<path opacity="0.965517" d="M44.814 57.9353L75.1743 47.5241C88.1399 43.0778 95.2387 29.1458 91.2147 16.043L81.7923 -14.6386C74.5863 -38.1029 102.64 -56.3215 121.145 -40.1947L145.342 -19.1075C155.675 -10.1021 171.29 -10.9204 180.625 -20.9567L202.485 -44.4575C219.203 -62.4303 249.008 -47.2439 244.294 -23.1549L238.13 8.34347C235.498 21.7951 244.014 34.9088 257.373 37.9754L288.656 45.1561C312.579 50.6477 314.33 84.0526 291.111 92.0148L260.751 102.426C247.785 106.872 240.687 120.804 244.711 133.907L254.133 164.589C261.339 188.053 233.285 206.272 214.78 190.145L190.584 169.058C180.25 160.052 164.635 160.871 155.3 170.907L133.44 194.408C116.723 212.38 86.9177 197.194 91.6315 173.105L97.7952 141.607C100.428 128.155 91.9114 115.041 78.552 111.975L47.2698 104.794C23.3461 99.3024 21.5954 65.8975 44.814 57.9353Z" stroke="white"/>
<path d="M49.6684 51.5153L77.9932 43.4318C91.1738 39.6703 98.9919 26.1288 95.6592 12.8334L88.4974 -15.7384C82.5293 -39.5477 111.498 -56.2731 129.134 -39.1999L150.297 -18.7117C160.145 -9.17774 175.781 -9.17774 185.629 -18.7117L206.792 -39.1999C224.427 -56.2731 253.396 -39.5477 247.428 -15.7384L240.266 12.8334C236.934 26.1288 244.752 39.6702 257.932 43.4318L286.257 51.5153C309.861 58.2514 309.861 91.7022 286.257 98.4383L257.932 106.522C244.752 110.283 236.934 123.825 240.266 137.12L247.428 165.692C253.396 189.501 224.427 206.227 206.792 189.154L185.629 168.665C175.781 159.131 160.145 159.131 150.297 168.665L129.134 189.154C111.498 206.227 82.5293 189.501 88.4974 165.692L95.6592 137.12C98.9919 123.825 91.1738 110.283 77.9932 106.522L49.6684 98.4383C26.0649 91.7022 26.0649 58.2515 49.6684 51.5153Z" stroke="white"/>
</mask>
<g mask="url(#mask0_3801_12227)">
<rect x="-97.8538" y="277.375" width="338.094" height="496.386" transform="rotate(-90 -97.8538 277.375)" fill="#4EC2A0" fill-opacity="0.24"/>
<rect y="150" width="150" height="375" transform="rotate(-90 0 150)" fill="#F9CAC8" fill-opacity="0.11"/>
</g>
</g>
<defs>
<clipPath id="clip0_3801_12227">
<path d="M0 0H375V142C375 146.418 371.418 150 367 150H5C2.23857 150 0 147.761 0 145V0Z" fill="white"/>
</clipPath>
</defs>
</svg>
