<svg width="21" height="18" viewBox="0 0 21 18" fill="none" xmlns="http://www.w3.org/2000/svg">
<path d="M4.72258 14.6723C2.46063 13.1914 1 10.9599 1 9.00225C1 5.67525 5.19932 1.59766 10.3825 1.59766C12.5025 1.59766 14.4703 2.27726 16.0526 3.33216" stroke="#AAB2BD" stroke-linecap="round" stroke-linejoin="round"/>
<path d="M18.3448 5.42188C19.2485 6.56807 19.775 7.83597 19.775 9.00245C19.775 12.3294 15.5655 16.407 10.3823 16.407C9.45924 16.407 8.55751 16.2752 7.7146 16.0419" stroke="#AAB2BD" stroke-linecap="round" stroke-linejoin="round"/>
<path d="M8.11627 11.2614C7.51275 10.6639 7.17498 9.84943 7.178 9.00044C7.17396 7.23044 8.60619 5.79212 10.3772 5.78907C11.2292 5.78705 12.0468 6.12482 12.6493 6.72733" stroke="#AAB2BD" stroke-linecap="round" stroke-linejoin="round"/>
<path d="M13.5366 9.57031C13.2993 10.8808 12.2738 11.9083 10.9633 12.1487" stroke="#AAB2BD" stroke-linecap="round" stroke-linejoin="round"/>
<path d="M18.3873 1L2.38733 17" stroke="#AAB2BD" stroke-linecap="round" stroke-linejoin="round"/>
</svg>
