<svg width="32" height="32" viewBox="0 0 32 32" fill="none" xmlns="http://www.w3.org/2000/svg">
<path d="M30 20H2V2.91467C2 2.40933 2.40933 2 2.91467 2H29.0847C29.5907 2 30 2.40933 30 2.91467V20Z" fill="url(#paint0_linear)"/>
<path d="M28.6663 3.33333H3.33301V18.6667H28.6663V3.33333Z" fill="url(#paint1_linear)"/>
<path d="M28.6277 30.6667H3.37169C2.79902 30.6667 2.22968 30.588 1.67835 30.4327L0.610352 29.9433H31.389L30.321 30.4327C29.7704 30.588 29.2004 30.6667 28.6277 30.6667Z" fill="url(#paint2_linear)"/>
<path d="M31.1024 30H0.897071C0.433071 30 0.084404 29.5753 0.175737 29.12L1.99974 20H29.9997L31.8237 29.12C31.9151 29.5753 31.5664 30 31.1024 30Z" fill="url(#paint3_linear)"/>
<path d="M14.0003 22H14.667V22.6667H13.3336V22H14.0003ZM9.33363 22V22.6667H10.667V22H10.0003H9.33363ZM7.33363 22V22.6667H8.66696V22H8.00029H7.33363ZM15.3336 22V22.6667H16.667V22H16.0003H15.3336ZM17.3336 22V22.6667H18.667V22H18.0003H17.3336ZM10.667 24.6667H10.0003H9.33363V25.3333H10.667V24.6667ZM8.66696 24.6667H8.00029H7.33363V25.3333H8.66696V24.6667ZM19.3336 22V22.6667H20.667V22H20.0003H19.3336ZM5.33363 22V22.6667H6.66696V22H6.00029H5.33363ZM8.00029 24V23.3333H7.33363H6.66696V24H8.00029ZM5.33363 24.6667V25.3333H6.66696V24.6667H6.00029H5.33363ZM23.3336 22V22.6667H24.667V22H24.0003H23.3336ZM12.0003 23.3333H11.3336H10.667V24H12.0003V23.3333ZM16.0003 23.3333H15.3336H14.667V24H16.0003V23.3333ZM14.0003 23.3333H13.3336H12.667V24H14.0003V23.3333ZM8.66696 23.3333V24H10.0003V23.3333H9.33363H8.66696ZM27.3336 25.3333H29.7203L29.6036 24.6667H27.3336V25.3333ZM24.667 23.3333V24H26.0003V23.3333H25.3336H24.667ZM21.3336 22V22.6667H22.667V22H22.0003H21.3336ZM24.0003 23.3333H23.3336H22.667V24H24.0003V23.3333ZM20.667 24.6667H16.0003H11.3336V25.3333H20.667V24.6667ZM22.0003 23.3333H21.3336H20.667V24H22.0003V23.3333ZM18.0003 23.3333H17.3336H16.667V24H18.0003V23.3333ZM20.0003 23.3333H19.3336H18.667V24H20.0003V23.3333ZM11.3336 22V22.6667H12.667V22H12.0003H11.3336ZM10.0003 21.3333V20.6667H8.66696V21.3333H10.0003ZM14.0003 21.3333V20.6667H12.667V21.3333H14.0003ZM12.0003 21.3333V20.6667H10.667V21.3333H12.0003ZM16.0003 21.3333V20.6667H14.667V21.3333H16.0003ZM20.0003 21.3333V20.6667H18.667V21.3333H20.0003ZM18.0003 21.3333V20.6667H16.667V21.3333H18.0003ZM6.00029 20.6667H3.08562L2.96829 21.3333H6.00029V20.6667ZM6.00029 23.3333H5.33363H4.66696H2.61763L2.50029 24H6.00029V23.3333ZM8.00029 21.3333V20.6667H6.66696V21.3333H8.00029ZM22.0003 21.3333V20.6667H20.667V21.3333H22.0003ZM4.66696 22H2.85163L2.73496 22.6667H4.66696V22ZM4.66696 24.6667H2.38296L2.26562 25.3333H4.66696V24.6667ZM22.667 24.6667H22.0003H21.3336V25.3333H22.667V24.6667ZM24.667 24.6667H24.0003H23.3336V25.3333H24.667V24.6667ZM29.0183 21.3333L28.901 20.6667H26.667V21.3333H29.0183ZM26.0003 21.3333V20.6667H24.667V21.3333H26.0003ZM26.667 24.6667H26.0003H25.3336V25.3333H26.667V24.6667ZM24.0003 21.3333V20.6667H22.667V21.3333H24.0003ZM26.0003 22H25.3336V22.6667H29.2523L29.135 22H26.667H26.0003ZM26.667 24H29.4863L29.369 23.3333H26.667V24Z" fill="url(#paint4_linear)"/>
<path d="M20 29.3333H12L12.326 26H19.7093L20 29.3333Z" fill="url(#paint5_linear)"/>
<path d="M20.0007 2H2.91467C2.40933 2 2 2.40933 2 2.91467V20H7.06333L20.0007 2Z" fill="url(#paint6_linear)"/>
<path d="M16 2.89933C16.145 2.89933 16.2626 2.78173 16.2626 2.63666C16.2626 2.49159 16.145 2.37399 16 2.37399C15.8549 2.37399 15.7373 2.49159 15.7373 2.63666C15.7373 2.78173 15.8549 2.89933 16 2.89933Z" fill="#757575"/>
<defs>
<linearGradient id="paint0_linear" x1="2" y1="11" x2="30" y2="11" gradientUnits="userSpaceOnUse">
<stop stop-color="#39393B"/>
<stop offset="0.981" stop-color="#030302"/>
</linearGradient>
<linearGradient id="paint1_linear" x1="18.4237" y1="17.8027" x2="13.277" y2="3.35933" gradientUnits="userSpaceOnUse">
<stop stop-color="#00349C"/>
<stop offset="1" stop-color="#00B1F2"/>
</linearGradient>
<linearGradient id="paint2_linear" x1="0.610352" y1="30.3047" x2="31.389" y2="30.3047" gradientUnits="userSpaceOnUse">
<stop stop-color="#4B4D4D"/>
<stop offset="1" stop-color="#757877"/>
</linearGradient>
<linearGradient id="paint3_linear" x1="0.161071" y1="25" x2="31.8384" y2="25" gradientUnits="userSpaceOnUse">
<stop stop-color="#999999"/>
<stop offset="0.403" stop-color="#EEEEEE"/>
<stop offset="1" stop-color="#9B9B9B"/>
</linearGradient>
<linearGradient id="paint4_linear" x1="15.993" y1="29.5887" x2="15.993" y2="22.156" gradientUnits="userSpaceOnUse">
<stop stop-color="#45606A"/>
<stop offset="1" stop-color="#78949B"/>
</linearGradient>
<linearGradient id="paint5_linear" x1="16" y1="18.1667" x2="16" y2="34.076" gradientUnits="userSpaceOnUse">
<stop offset="0.056" stop-color="#4C5251"/>
<stop offset="1" stop-color="#CCCCCC"/>
</linearGradient>
<linearGradient id="paint6_linear" x1="0.433333" y1="3.00733" x2="14.79" y2="13.8667" gradientUnits="userSpaceOnUse">
<stop offset="0.006" stop-color="white" stop-opacity="0.5"/>
<stop offset="0.952" stop-color="white" stop-opacity="0"/>
</linearGradient>
</defs>
</svg>
