<svg width="101" height="25" viewBox="0 0 101 25" fill="none" xmlns="http://www.w3.org/2000/svg">
<path d="M4 19V0H0V19H4Z" fill="#3A50D5"/>
<path d="M15.3284 15.9249C13.2529 15.9249 11.335 15.0886 10.8358 13.1195H22.7898C22.9212 12.7688 23 12.2293 23 11.6898C23 7.4817 19.5057 5 15.0657 5C10.3629 5 7 7.77842 7 12.0944C7 16.3565 10.468 19 15.3547 19C18.9015 19 22.5796 17.6513 23 14.3064H19.0854C18.6125 15.5742 16.9048 15.9249 15.3284 15.9249ZM15.0657 7.91329C17.1412 7.91329 18.6125 8.85742 19.0066 10.4759H10.9409C11.4663 8.88439 12.9113 7.91329 15.0657 7.91329Z" fill="#3A50D5"/>
<path d="M41 6H36.7297L32.5676 14.8931H32.4595L28.2973 6H24L30.5405 19.2208V25H34.4595V19.1681L41 6Z" fill="#3A50D5"/>
<path d="M59 6H54.7297L50.5676 14.8931H50.4595L46.2973 6H42L48.5405 19.2208V25H52.4595V19.1681L59 6Z" fill="#3A50D5"/>
<path d="M68.5 19C73.456 19 77 16.4423 77 12C77 7.55769 73.456 5 68.5 5C63.4886 5 60 7.55769 60 12C60 16.4423 63.4886 19 68.5 19ZM68.5 15.9577C65.842 15.9577 64.1808 14.3423 64.1808 12C64.1808 9.65769 65.842 8.04231 68.5 8.04231C71.1303 8.04231 72.8192 9.65769 72.8192 12C72.8192 14.3423 71.1303 15.9577 68.5 15.9577Z" fill="#3A50D5"/>
<path d="M97.149 6L94.3337 14.918H94.2275L91.7044 6H87.2956L84.7991 14.944H84.6928L81.851 6H78L82.3291 19H86.7644L89.4734 10.056H89.5797L92.2621 19H96.724L101 6H97.149Z" fill="#3A50D5"/>
</svg>
