<svg width="375" height="150" viewBox="0 0 375 150" fill="none" xmlns="http://www.w3.org/2000/svg">
<g clip-path="url(#clip0)">
<path d="M36.5644 98.9307V63H29V98.9307H36.5644Z" fill="#3848A9" fill-opacity="0.75"/>
<path d="M57.9876 93.1154C54.0626 93.1154 50.4357 91.5341 49.4917 87.8102H72.0978C72.3462 87.147 72.4953 86.1268 72.4953 85.1066C72.4953 77.1487 65.8873 72.4556 57.4908 72.4556C48.5974 72.4556 42.2379 77.7098 42.2379 85.8717C42.2379 93.9316 48.7961 98.9308 58.0373 98.9308C64.7446 98.9308 71.7003 96.3802 72.4953 90.0547H65.0924C64.1981 92.4523 60.9686 93.1154 57.9876 93.1154ZM57.4908 77.9649C61.4158 77.9649 64.1981 79.7503 64.9433 82.811H49.6904C50.6841 79.8013 53.4167 77.9649 57.4908 77.9649Z" fill="#3848A9" fill-opacity="0.75"/>
<path d="M106.535 74.3467H98.4595L90.5885 91.1642H90.3841L82.513 74.3467H74.3865L86.7552 99.3485V110.277H94.1662V99.2486L106.535 74.3467Z" fill="#3848A9" fill-opacity="0.75"/>
<path d="M140.149 73.9805H132.073L124.202 90.798H123.998L116.127 73.9805H108L120.369 98.9822V109.911H127.78V98.8824L140.149 73.9805Z" fill="#3848A9" fill-opacity="0.75"/>
<path d="M158.54 98.9308C167.912 98.9308 174.614 94.094 174.614 85.6932C174.614 77.2924 167.912 72.4556 158.54 72.4556C149.063 72.4556 142.466 77.2924 142.466 85.6932C142.466 94.094 149.063 98.9308 158.54 98.9308ZM158.54 93.1775C153.513 93.1775 150.372 90.1227 150.372 85.6932C150.372 81.2637 153.513 78.2088 158.54 78.2088C163.514 78.2088 166.708 81.2637 166.708 85.6932C166.708 90.1227 163.514 93.1775 158.54 93.1775Z" fill="#3848A9" fill-opacity="0.75"/>
<path d="M213.212 73.9805L207.889 90.8452H207.688L202.916 73.9805H194.579L189.858 90.8944H189.657L184.283 73.9805H177L185.187 98.5646H193.574L198.697 81.6507H198.898L203.971 98.5646H212.409L220.495 73.9805H213.212Z" fill="#3848A9" fill-opacity="0.75"/>
<rect x="0.0704346" y="-1" width="376.66" height="150" fill="#1D286B"/>
<rect width="286.542" height="556.891" transform="matrix(0.885115 0.465372 -0.517724 0.855548 -26.6841 -432)" fill="#5944CF"/>
<path d="M200.077 149.001L-3.88016 149.001L-12.9956 103.242L200.077 149.001Z" fill="#00B3FF"/>
<path d="M490.732 -72.412L490.732 134.191L12.1234 -116.493L249.061 -339.771L490.732 -72.412Z" fill="#1BA68F"/>
<path d="M397.727 7.71149L410.872 45.0268L339.064 149.222L306.42 149.222L397.727 7.71149Z" fill="#1E155D"/>
<path d="M36.5644 98.9307V63H29V98.9307H36.5644Z" fill="#3848A9" fill-opacity="0.75"/>
<path d="M57.9876 93.1154C54.0626 93.1154 50.4357 91.5341 49.4917 87.8102H72.0978C72.3462 87.147 72.4953 86.1268 72.4953 85.1066C72.4953 77.1487 65.8873 72.4556 57.4908 72.4556C48.5974 72.4556 42.2379 77.7098 42.2379 85.8717C42.2379 93.9316 48.7961 98.9308 58.0373 98.9308C64.7446 98.9308 71.7003 96.3802 72.4953 90.0547H65.0924C64.1981 92.4523 60.9686 93.1154 57.9876 93.1154ZM57.4908 77.9649C61.4158 77.9649 64.1981 79.7503 64.9433 82.811H49.6904C50.6841 79.8013 53.4167 77.9649 57.4908 77.9649Z" fill="#3848A9" fill-opacity="0.75"/>
<path d="M106.535 74.3467H98.4595L90.5885 91.1642H90.3841L82.513 74.3467H74.3865L86.7552 99.3485V110.277H94.1662V99.2486L106.535 74.3467Z" fill="#3848A9" fill-opacity="0.75"/>
<path d="M140.149 73.9805H132.073L124.202 90.798H123.998L116.127 73.9805H108L120.369 98.9822V109.911H127.78V98.8824L140.149 73.9805Z" fill="#3848A9" fill-opacity="0.75"/>
<path d="M158.54 98.9308C167.912 98.9308 174.614 94.094 174.614 85.6932C174.614 77.2924 167.912 72.4556 158.54 72.4556C149.063 72.4556 142.466 77.2924 142.466 85.6932C142.466 94.094 149.063 98.9308 158.54 98.9308ZM158.54 93.1775C153.513 93.1775 150.372 90.1227 150.372 85.6932C150.372 81.2637 153.513 78.2088 158.54 78.2088C163.514 78.2088 166.708 81.2637 166.708 85.6932C166.708 90.1227 163.514 93.1775 158.54 93.1775Z" fill="#3848A9" fill-opacity="0.75"/>
<path d="M213.212 73.9805L207.889 90.8452H207.688L202.916 73.9805H194.579L189.858 90.8944H189.657L184.283 73.9805H177L185.187 98.5646H193.574L198.697 81.6507H198.898L203.971 98.5646H212.409L220.495 73.9805H213.212Z" fill="#3848A9" fill-opacity="0.75"/>
</g>
<defs>
<clipPath id="clip0">
<rect width="375" height="150" fill="white"/>
</clipPath>
</defs>
</svg>
