<svg width="16" height="16" viewBox="0 0 16 16" fill="none" xmlns="http://www.w3.org/2000/svg">
<path d="M0 1C0 0.44772 0.44772 0 1 0H3.15287C3.64171 0 4.0589 0.35341 4.13927 0.8356L4.87858 5.27147C4.95075 5.70451 4.73206 6.13397 4.3394 6.3303L2.79126 7.10437C3.90756 9.8783 6.12168 12.0924 8.8956 13.2087L9.6697 11.6606C9.866 11.2679 10.2955 11.0492 10.7285 11.1214L15.1644 11.8607C15.6466 11.9411 16 12.3583 16 12.8471V15C16 15.5523 15.5523 16 15 16H13C5.8203 16 0 10.1797 0 3V1Z" fill="#8093AD"/>
</svg>
