<svg width="32" height="32" viewBox="0 0 32 32" fill="none" xmlns="http://www.w3.org/2000/svg">
<path d="M27.4945 13.4034C27.4945 13.5187 27.4865 13.634 27.4738 13.75C27.3435 14.6896 26.9306 15.5673 26.2898 16.2667C25.6571 16.9455 24.9113 17.5095 24.0858 17.9334C21.5219 19.2419 18.6673 19.8769 15.7905 19.7787C13.3809 19.791 10.9953 19.3008 8.7858 18.3394C6.90847 17.4834 4.75713 16 4.52113 13.76C4.44237 12.6099 4.81361 11.4742 5.55647 10.5927C7.1838 8.55202 10.0031 7.49269 12.4898 7.01802C15.1312 6.52678 17.8486 6.62467 20.4478 7.30469C21.5153 7.57946 22.5541 7.95584 23.5498 8.42869C24.2164 8.7376 24.845 9.12261 25.4231 9.57602C26.0318 10.0193 26.5337 10.593 26.892 11.2552C27.2504 11.9174 27.4563 12.6514 27.4945 13.4034Z" fill="url(#paint0_radial)"/>
<path d="M5.94043 10.322C6.6559 9.43221 7.55953 8.71185 8.58643 8.2127C9.60409 7.69611 10.673 7.28744 11.7758 6.99336C13.9935 6.36305 16.3196 6.20923 18.6011 6.54203C20.9044 6.85839 23.1079 7.68494 25.0511 8.96136C25.5366 9.30166 25.9813 9.6967 26.3764 10.1387C26.5739 10.3634 26.7567 10.6006 26.9238 10.8487C27.0988 11.1148 27.2296 11.4075 27.3111 11.7154C27.4892 12.2834 27.5345 12.8848 27.4434 13.4732C27.3523 14.0615 27.1273 14.6211 26.7858 15.1087C27.1182 14.0689 27.0709 12.9449 26.6524 11.9367C26.5613 11.7076 26.4407 11.4913 26.2938 11.2934C26.1151 11.0934 25.9604 10.8834 25.7678 10.7C25.3966 10.3153 24.9901 9.96622 24.5538 9.65736C22.7311 8.42704 20.6578 7.61707 18.4838 7.28603C16.2965 6.92446 14.0599 6.98898 11.8971 7.47603C9.7551 8.00003 7.52043 8.6667 5.94043 10.322Z" fill="url(#paint1_linear)"/>
<path d="M23.9007 19.6853C19.718 22.1173 12.776 22.048 8.39469 19.5213C8.25669 19.4347 8.11869 19.3573 7.98069 19.2627C6.09202 18.0627 5.10936 16.5633 5.02269 15.0627V15.0453C4.92802 13.4 5.93736 11.7687 8.05002 10.5333C9.87702 9.53956 11.899 8.95687 13.9747 8.82599C17.2835 8.50042 20.615 9.15416 23.5554 10.706C27.9367 13.2347 28.0827 17.2533 23.9007 19.6853Z" fill="url(#paint2_linear)"/>
<path opacity="0.5" d="M18.5027 19.1694C16.7693 19.1694 15.458 18.4807 15.458 17.5694C15.458 16.658 16.7667 15.9694 18.5027 15.9694C20.2387 15.9694 21.5467 16.6574 21.5467 17.5694C21.5467 18.4814 20.238 19.1694 18.5027 19.1694Z" fill="url(#paint3_linear)"/>
<path opacity="0.5" d="M21.7267 15.2667C20.1861 15.214 19.0461 14.5333 19.0747 13.684C19.1034 12.8347 20.2881 12.234 21.8287 12.284C23.3694 12.334 24.5094 13.0173 24.4807 13.8653C24.4521 14.7133 23.2667 15.3213 21.7267 15.2667Z" fill="url(#paint4_linear)"/>
<path opacity="0.5" d="M24.2381 13.862C24.2615 13.1787 23.1784 12.5871 21.8191 12.5407C20.4598 12.4943 19.339 13.0106 19.3157 13.694C19.2923 14.3773 20.3754 14.9689 21.7347 15.0153C23.094 15.0617 24.2148 14.5453 24.2381 13.862Z" fill="url(#paint5_linear)"/>
<path opacity="0.5" d="M19.4172 13.1513C18.3092 13.1133 17.4885 12.6247 17.5092 12.0127C17.5298 11.4007 18.3825 10.9693 19.4905 11.0073C20.5985 11.0453 21.4198 11.534 21.3985 12.1453C21.3772 12.7567 20.5258 13.1893 19.4172 13.1513Z" fill="url(#paint6_linear)"/>
<path opacity="0.5" d="M21.2237 12.1404C21.2405 11.6488 20.4612 11.2232 19.4831 11.1898C18.505 11.1564 17.6985 11.5279 17.6818 12.0195C17.665 12.5111 18.4443 12.9367 19.4223 12.9701C20.4004 13.0035 21.2069 12.632 21.2237 12.1404Z" fill="url(#paint7_linear)"/>
<path opacity="0.5" d="M16.19 14.938C15.138 14.902 14.3593 14.4373 14.3793 13.8567C14.3993 13.276 15.2073 12.8667 16.2593 12.9027C17.3113 12.9387 18.0906 13.4027 18.0706 13.9827C18.0506 14.5627 17.242 14.9733 16.19 14.938Z" fill="url(#paint8_linear)"/>
<path opacity="0.5" d="M17.9055 13.9774C17.9215 13.5108 17.1817 13.1069 16.2533 13.0752C15.3249 13.0435 14.5594 13.396 14.5435 13.8626C14.5276 14.3292 15.2673 14.7332 16.1957 14.7649C17.1241 14.7965 17.8896 14.444 17.9055 13.9774Z" fill="url(#paint9_linear)"/>
<path opacity="0.5" d="M18.5031 18.8973C20.0344 18.8973 21.2758 18.3019 21.2758 17.5673C21.2758 16.8328 20.0344 16.2373 18.5031 16.2373C16.9718 16.2373 15.7305 16.8328 15.7305 17.5673C15.7305 18.3019 16.9718 18.8973 18.5031 18.8973Z" fill="url(#paint10_linear)"/>
<path opacity="0.5" d="M11.8949 18.0127C10.2075 18.0127 8.93555 17.3994 8.93555 16.5847C8.93555 15.77 10.2075 15.1567 11.8949 15.1567C13.5822 15.1567 14.8542 15.7707 14.8542 16.5847C14.8542 17.3987 13.5822 18.0127 11.8949 18.0127Z" fill="url(#paint11_linear)"/>
<path opacity="0.5" d="M11.8953 17.7407C13.3795 17.7407 14.5827 17.2231 14.5827 16.5847C14.5827 15.9462 13.3795 15.4287 11.8953 15.4287C10.4112 15.4287 9.20801 15.9462 9.20801 16.5847C9.20801 17.2231 10.4112 17.7407 11.8953 17.7407Z" fill="url(#paint12_linear)"/>
<path opacity="0.5" d="M12.1891 13.3007C12.0908 13.3002 11.9925 13.2931 11.8951 13.2794C11.1731 13.178 10.7618 12.9534 10.6285 12.592C10.5911 12.4752 10.5814 12.3513 10.6 12.2301C10.6186 12.1089 10.6651 11.9936 10.7358 11.8934C10.8691 11.6887 11.5751 11.3707 12.8285 10.9454C13.1116 10.7213 13.4504 10.5786 13.8085 10.5327L13.8878 10.5374C14.137 10.6162 14.3675 10.7452 14.5649 10.9165C14.7623 11.0878 14.9226 11.2978 15.0358 11.5334C15.0761 11.6165 15.0971 11.7077 15.0971 11.8C15.0971 11.8924 15.0761 11.9836 15.0358 12.0667C14.9145 12.2874 14.6565 12.3954 14.2465 12.3954C14.0899 12.3953 13.9337 12.3808 13.7798 12.352C13.6184 12.6331 13.3873 12.8679 13.1088 13.0337C12.8303 13.1995 12.5138 13.2908 12.1898 13.2987L12.1891 13.3007Z" fill="url(#paint13_linear)"/>
<path opacity="0.5" d="M10.9205 12.0593C10.7638 12.2967 10.6218 12.8267 11.9205 13.01C13.2191 13.1933 13.6245 12.01 13.7111 12.0573C13.7978 12.1047 14.6645 12.2393 14.8378 11.924C15.0111 11.6087 14.2411 10.8573 13.8651 10.8113C13.5102 10.8516 13.1736 10.9902 12.8931 11.2113C12.2067 11.4214 11.5452 11.7057 10.9205 12.0593Z" fill="url(#paint14_linear)"/>
<path d="M26.6078 16.9087C27.0618 14.6767 26.0078 12.5753 23.6504 11.128C19.1671 8.37399 12.1278 8.33732 7.85045 10.9913C6.73838 11.6668 5.81763 12.6155 5.17578 13.7473C5.69568 12.353 6.72151 11.2055 8.04911 10.5333C12.2338 8.10599 19.1824 8.17865 23.5558 10.7053C26.5178 12.4067 27.5411 14.8 26.6078 16.9087Z" fill="url(#paint15_linear)"/>
<path d="M14.8332 11.9453C14.5657 11.9857 14.2927 11.967 14.0332 11.8907C13.8642 11.8391 13.7051 11.7595 13.5625 11.6553C13.6212 11.1905 13.812 10.7522 14.1122 10.3925C14.4125 10.0328 14.8096 9.7668 15.2565 9.626H15.2665L15.2845 9.75333C15.4181 10.5148 15.2567 11.2986 14.8332 11.9453Z" fill="url(#paint16_linear)"/>
<path d="M14.8332 11.9453C14.5657 11.9857 14.2927 11.967 14.0332 11.8907C14.4952 10.994 15.0839 9.95266 15.2652 9.62399L15.2832 9.75133C15.4177 10.5133 15.2568 11.2978 14.8332 11.9453Z" fill="url(#paint17_radial)"/>
<path d="M13.5645 11.6553L13.8818 11.7713C13.9751 11.8097 14.073 11.8355 14.1731 11.848C14.3838 11.8847 14.6005 11.8987 14.8325 11.9453C14.618 12.045 14.3799 12.0826 14.1451 12.054C14.022 12.0437 13.9037 12.0016 13.8019 11.9317C13.7001 11.8617 13.6183 11.7665 13.5645 11.6553Z" fill="url(#paint18_linear)"/>
<path d="M14.2009 16.3827C14.201 16.5189 14.1867 16.6548 14.1582 16.788C13.5242 17.2522 12.7552 17.4951 11.9695 17.4793C11.5166 17.4947 11.0651 17.4196 10.6415 17.2583C10.218 17.097 9.83088 16.8528 9.50288 16.54C9.49513 16.4879 9.492 16.4353 9.49355 16.3827C9.49355 15.21 10.5449 13.8093 11.8462 13.8093C13.1475 13.8093 14.2009 15.21 14.2009 16.3827Z" fill="url(#paint19_radial)"/>
<path d="M21.4529 11.9947C21.4531 12.0989 21.4419 12.2029 21.4195 12.3047C20.9346 12.6602 20.3461 12.8462 19.7449 12.834C19.3984 12.8457 19.053 12.7881 18.729 12.6646C18.4051 12.541 18.109 12.3541 17.8582 12.1147C17.8521 12.075 17.8497 12.0348 17.8509 11.9947C17.8606 11.5038 18.0486 11.0333 18.3798 10.6709C18.7111 10.3085 19.1629 10.079 19.6509 10.0254C20.139 10.0793 20.5909 10.3087 20.9224 10.671C21.2539 11.0333 21.4424 11.5037 21.4529 11.9947Z" fill="url(#paint20_radial)"/>
<path d="M17.7729 13.8073C17.7732 13.897 17.7638 13.9864 17.7449 14.074C17.3286 14.3795 16.8232 14.5393 16.3069 14.5287C16.0094 14.5386 15.7129 14.4891 15.4347 14.3831C15.1566 14.2771 14.9023 14.1167 14.6869 13.9113C14.6819 13.8771 14.6799 13.8426 14.6809 13.808C14.6888 13.3864 14.8502 12.9821 15.1348 12.6709C15.4194 12.3596 15.8076 12.1628 16.2269 12.1173C16.6457 12.1638 17.0333 12.3608 17.3177 12.6716C17.6021 12.9825 17.7638 13.3861 17.7729 13.8073Z" fill="url(#paint21_radial)"/>
<path d="M24.0133 13.7334C24.0138 13.8629 24.0001 13.9921 23.9727 14.1187C23.3706 14.5598 22.6402 14.7905 21.894 14.7754C21.4639 14.7898 21.0353 14.7183 20.6332 14.5652C20.231 14.412 19.8635 14.1802 19.552 13.8834C19.5448 13.8337 19.5419 13.7835 19.5433 13.7334C19.5433 12.6194 20.5433 11.2894 21.778 11.2894C23.0127 11.2894 24.0133 12.616 24.0133 13.7334Z" fill="url(#paint22_radial)"/>
<path d="M21.0289 17.4927C21.0293 17.6388 21.0139 17.7845 20.9829 17.9273C20.3024 18.4249 19.4771 18.6847 18.6343 18.6667C18.1485 18.6829 17.6643 18.6021 17.2101 18.429C16.7559 18.256 16.3407 17.9941 15.9889 17.6587C15.9806 17.6028 15.9773 17.5464 15.9789 17.49C15.9789 16.2313 17.1069 14.7287 18.5043 14.7287C19.9016 14.7287 21.0289 16.234 21.0289 17.4927Z" fill="url(#paint23_radial)"/>
<path opacity="0.4" d="M20.4611 20.5734C17.2878 20.7374 10.8891 20.9527 8.39445 19.5214C8.25645 19.4347 8.11845 19.3574 7.98045 19.2627C7.21945 18.8104 6.56257 18.2024 6.05282 17.4787C5.54307 16.7549 5.19195 15.9316 5.02245 15.0627V15.0454C4.92978 13.4 5.93911 11.7687 8.05178 10.5334C9.87877 9.5396 11.9008 8.95691 13.9764 8.82603C13.4691 10.5241 13.4681 12.3332 13.9735 14.0319C14.4788 15.7305 15.4687 17.2448 16.8218 18.3894C17.8852 19.3418 19.1203 20.083 20.4611 20.5734Z" fill="url(#paint24_linear)"/>
<path d="M28.6229 13.6447C28.6109 13.8187 28.6456 14.3927 28.6429 14.6273C28.6389 14.9909 28.6167 15.3533 28.5762 15.7147C28.5003 16.4175 28.3603 17.1119 28.1582 17.7893C27.7551 19.1475 27.1034 20.419 26.2362 21.5393C25.0421 22.9949 23.5461 24.1738 21.8516 24.9944C20.1571 25.815 18.3046 26.2577 16.4222 26.292C13.054 26.4163 9.76306 25.2643 7.20757 23.0667C5.80656 21.8157 4.72901 20.2443 4.0669 18.4867C3.51137 16.8067 3.27112 15.0386 3.35824 13.2713C3.35824 14.974 4.51957 16.3733 5.80224 17.428C7.03975 18.3902 8.45101 19.105 9.9589 19.5333C13.8905 20.8266 18.1265 20.8685 22.0829 19.6533C23.6261 19.212 25.0619 18.4577 26.3009 17.4373C26.9309 16.9371 27.4797 16.3423 27.9276 15.674C28.2112 15.0165 28.4437 14.338 28.6229 13.6447Z" fill="url(#paint25_radial)"/>
<path d="M3.35938 13.298C3.49012 14.5924 4.08161 15.7967 5.02604 16.6914C5.96482 17.5646 7.05484 18.2595 8.24271 18.742C9.42019 19.253 10.6525 19.6271 11.9154 19.8567C13.1728 20.1066 14.4514 20.2343 15.7334 20.238C18.2944 20.2643 20.8368 19.8002 23.2234 18.8707C24.4072 18.4165 25.5162 17.7873 26.5134 17.004C27.5327 16.2194 28.2659 15.1215 28.6 13.8794C28.499 15.234 27.8927 16.5013 26.9014 17.43C25.9224 18.3585 24.7857 19.1051 23.5447 19.6347C22.3135 20.1636 21.0197 20.5329 19.6947 20.7334C18.3817 20.9508 17.0513 21.0458 15.7207 21.0174C13.051 21.0001 10.4184 20.3898 8.01338 19.2307C6.79316 18.6832 5.69663 17.8939 4.79004 16.9107C3.87668 15.9287 3.366 14.6391 3.35938 13.298Z" fill="url(#paint26_linear)"/>
<path d="M26.0459 16.148C25.2857 16.9996 24.3594 17.6867 23.3239 18.1674C22.3051 18.6897 21.2278 19.0889 20.1146 19.3567C17.8766 19.8902 15.5603 20.0122 13.2786 19.7167C10.9554 19.481 8.72671 18.6738 6.79128 17.3674C5.77317 16.684 5.02018 15.6722 4.65795 14.5007C4.4929 13.9222 4.47205 13.3121 4.59721 12.7237C4.72237 12.1354 4.98974 11.5866 5.37595 11.1254C4.97363 12.1349 4.96531 13.2587 5.35262 14.274C5.7627 15.2404 6.43463 16.0731 7.29262 16.678C9.10166 17.9327 11.1928 18.7207 13.3799 18.972C15.58 19.3081 17.8207 19.2752 20.0099 18.8747C21.1044 18.6586 22.1749 18.3352 23.2059 17.9094C24.2538 17.5038 25.2169 16.9065 26.0459 16.148Z" fill="url(#paint27_linear)"/>
<path d="M28.6402 13.0353C28.5202 9.69734 24.9582 7.55534 22.0929 6.59868C20.0165 5.94185 17.8443 5.63962 15.6675 5.70468C13.7189 5.70726 11.7817 6.00256 9.92086 6.58068C6.99286 7.53334 3.29619 9.77334 3.36019 13.298C3.41822 14.522 3.89966 15.6878 4.72219 16.596C5.5428 17.4957 6.53044 18.2272 7.6302 18.75C11.4765 20.5744 15.8102 21.1044 19.9829 20.2607C21.8236 19.9348 23.5905 19.2799 25.1989 18.3273C26.0341 17.8391 26.7816 17.2142 27.4102 16.4787C28.0391 15.7386 28.4504 14.8386 28.5982 13.8787C28.6355 13.5992 28.6496 13.3171 28.6402 13.0353ZM27.2229 13.5487C27.1491 14.5269 26.7324 15.4477 26.0462 16.1487C25.3648 16.85 24.5633 17.4235 23.6795 17.842C20.5951 19.3122 17.1496 19.8536 13.7629 19.4C11.31 19.1985 8.95404 18.3516 6.93419 16.9453C5.05619 15.5387 4.12819 13.3047 5.37753 11.128C6.57219 9.04667 9.01086 8.03934 11.2069 7.40468C12.9598 6.89472 14.7821 6.66412 16.6069 6.72134C19.9149 6.83201 24.6069 8.22734 26.6169 11.0753C26.9314 11.5699 27.1272 12.1305 27.1889 12.7133C27.2291 12.9899 27.2405 13.2698 27.2229 13.5487Z" fill="url(#paint28_linear)"/>
<path d="M13.422 11.5287V11.5373C13.3854 11.646 13.15 12.404 12.6887 12.5973C12.1584 12.6716 11.6179 12.5929 11.1307 12.3707H11.1214C10.7986 11.8635 10.5901 11.2921 10.5103 10.6962C10.4305 10.1004 10.4814 9.49426 10.6594 8.92001L10.6774 8.92868L10.8494 8.98335C11.4517 9.16856 12.0003 9.49679 12.4483 9.94002C12.8963 10.3833 13.2304 10.9283 13.422 11.5287Z" fill="url(#paint29_linear)"/>
<path d="M12.688 12.6C12.1577 12.6742 11.6172 12.5956 11.13 12.3733H11.1214C10.7986 11.8661 10.5901 11.2947 10.5103 10.6989C10.4305 10.103 10.4814 9.49689 10.6594 8.92265L10.6774 8.93132L12.688 12.6Z" fill="url(#paint30_radial)"/>
<path d="M11.1211 12.3707C11.3651 12.41 11.6078 12.4374 11.8451 12.47C12.0736 12.5032 12.3054 12.5077 12.5351 12.4834C12.7445 12.4373 12.9306 12.3179 13.0598 12.1467C13.2105 11.9631 13.3324 11.7577 13.4211 11.5374C13.4306 11.7948 13.3653 12.0495 13.2331 12.2707C13.162 12.3895 13.0664 12.4919 12.9528 12.5709C12.8391 12.65 12.7099 12.704 12.5738 12.7294C12.0648 12.7551 11.5596 12.6304 11.1211 12.3707Z" fill="url(#paint31_linear)"/>
<defs>
<radialGradient id="paint0_radial" cx="0" cy="0" r="1" gradientUnits="userSpaceOnUse" gradientTransform="translate(12.8329 18.2141) rotate(-23.6509) scale(24.1845 19.3476)">
<stop stop-color="#A49280"/>
<stop offset="0.194" stop-color="#A08E7D"/>
<stop offset="0.395" stop-color="#938373"/>
<stop offset="0.58" stop-color="#817264"/>
<stop offset="1" stop-color="#786C5F"/>
</radialGradient>
<linearGradient id="paint1_linear" x1="28.0018" y1="11.7607" x2="5.99243" y2="7.87936" gradientUnits="userSpaceOnUse">
<stop stop-color="#AB9885"/>
<stop offset="0.996" stop-color="#948373"/>
</linearGradient>
<linearGradient id="paint2_linear" x1="2.28869" y1="19.1667" x2="31.4174" y2="10.536" gradientUnits="userSpaceOnUse">
<stop stop-color="#FF984A"/>
<stop offset="0.016" stop-color="#FF994A"/>
<stop offset="0.658" stop-color="#FEBD5C"/>
<stop offset="1" stop-color="#FECB62"/>
</linearGradient>
<linearGradient id="paint3_linear" x1="18.9267" y1="19.796" x2="17.9593" y2="14.716" gradientUnits="userSpaceOnUse">
<stop stop-color="#FA8039" stop-opacity="0.8"/>
<stop offset="0.042" stop-color="#FA8039" stop-opacity="0.759"/>
<stop offset="0.391" stop-color="#FA8039" stop-opacity="0.437"/>
<stop offset="0.678" stop-color="#FA8039" stop-opacity="0.201"/>
<stop offset="0.888" stop-color="#FA8039" stop-opacity="0.055"/>
<stop offset="1" stop-color="#FA8039" stop-opacity="0"/>
</linearGradient>
<linearGradient id="paint4_linear" x1="196.401" y1="89.2052" x2="194.864" y2="67.5243" gradientUnits="userSpaceOnUse">
<stop stop-color="#FA8039" stop-opacity="0.8"/>
<stop offset="0.042" stop-color="#FA8039" stop-opacity="0.759"/>
<stop offset="0.391" stop-color="#FA8039" stop-opacity="0.437"/>
<stop offset="0.678" stop-color="#FA8039" stop-opacity="0.201"/>
<stop offset="0.888" stop-color="#FA8039" stop-opacity="0.055"/>
<stop offset="1" stop-color="#FA8039" stop-opacity="0"/>
</linearGradient>
<linearGradient id="paint5_linear" x1="98.7694" y1="128.356" x2="89.7021" y2="101.705" gradientUnits="userSpaceOnUse">
<stop stop-color="#FA8039" stop-opacity="0.8"/>
<stop offset="0.042" stop-color="#FA8039" stop-opacity="0.759"/>
<stop offset="0.391" stop-color="#FA8039" stop-opacity="0.437"/>
<stop offset="0.678" stop-color="#FA8039" stop-opacity="0.201"/>
<stop offset="0.888" stop-color="#FA8039" stop-opacity="0.055"/>
<stop offset="1" stop-color="#FA8039" stop-opacity="0"/>
</linearGradient>
<linearGradient id="paint6_linear" x1="130.861" y1="58.6623" x2="130.067" y2="47.448" gradientUnits="userSpaceOnUse">
<stop stop-color="#FA8039" stop-opacity="0.8"/>
<stop offset="0.042" stop-color="#FA8039" stop-opacity="0.759"/>
<stop offset="0.391" stop-color="#FA8039" stop-opacity="0.437"/>
<stop offset="0.678" stop-color="#FA8039" stop-opacity="0.201"/>
<stop offset="0.888" stop-color="#FA8039" stop-opacity="0.055"/>
<stop offset="1" stop-color="#FA8039" stop-opacity="0"/>
</linearGradient>
<linearGradient id="paint7_linear" x1="68.6818" y1="83.0558" x2="63.9816" y2="69.2602" gradientUnits="userSpaceOnUse">
<stop stop-color="#FA8039" stop-opacity="0.8"/>
<stop offset="0.042" stop-color="#FA8039" stop-opacity="0.759"/>
<stop offset="0.391" stop-color="#FA8039" stop-opacity="0.437"/>
<stop offset="0.678" stop-color="#FA8039" stop-opacity="0.201"/>
<stop offset="0.888" stop-color="#FA8039" stop-opacity="0.055"/>
<stop offset="1" stop-color="#FA8039" stop-opacity="0"/>
</linearGradient>
<linearGradient id="paint8_linear" x1="104.113" y1="63.1555" x2="103.398" y2="53.051" gradientUnits="userSpaceOnUse">
<stop stop-color="#FA8039" stop-opacity="0.8"/>
<stop offset="0.042" stop-color="#FA8039" stop-opacity="0.759"/>
<stop offset="0.391" stop-color="#FA8039" stop-opacity="0.437"/>
<stop offset="0.678" stop-color="#FA8039" stop-opacity="0.201"/>
<stop offset="0.888" stop-color="#FA8039" stop-opacity="0.055"/>
<stop offset="1" stop-color="#FA8039" stop-opacity="0"/>
</linearGradient>
<linearGradient id="paint9_linear" x1="54.5138" y1="90.4172" x2="50.2781" y2="77.9895" gradientUnits="userSpaceOnUse">
<stop stop-color="#FA8039" stop-opacity="0.8"/>
<stop offset="0.042" stop-color="#FA8039" stop-opacity="0.759"/>
<stop offset="0.391" stop-color="#FA8039" stop-opacity="0.437"/>
<stop offset="0.678" stop-color="#FA8039" stop-opacity="0.201"/>
<stop offset="0.888" stop-color="#FA8039" stop-opacity="0.055"/>
<stop offset="1" stop-color="#FA8039" stop-opacity="0"/>
</linearGradient>
<linearGradient id="paint10_linear" x1="172.591" y1="93.771" x2="170.999" y2="76.344" gradientUnits="userSpaceOnUse">
<stop stop-color="#FA8039" stop-opacity="0.8"/>
<stop offset="0.042" stop-color="#FA8039" stop-opacity="0.759"/>
<stop offset="0.391" stop-color="#FA8039" stop-opacity="0.437"/>
<stop offset="0.678" stop-color="#FA8039" stop-opacity="0.201"/>
<stop offset="0.888" stop-color="#FA8039" stop-opacity="0.055"/>
<stop offset="1" stop-color="#FA8039" stop-opacity="0"/>
</linearGradient>
<linearGradient id="paint11_linear" x1="114.53" y1="93.651" x2="114.53" y2="73.3591" gradientUnits="userSpaceOnUse">
<stop stop-color="#FA8039" stop-opacity="0.8"/>
<stop offset="0.042" stop-color="#FA8039" stop-opacity="0.759"/>
<stop offset="0.391" stop-color="#FA8039" stop-opacity="0.437"/>
<stop offset="0.678" stop-color="#FA8039" stop-opacity="0.201"/>
<stop offset="0.888" stop-color="#FA8039" stop-opacity="0.055"/>
<stop offset="1" stop-color="#FA8039" stop-opacity="0"/>
</linearGradient>
<linearGradient id="paint12_linear" x1="105.097" y1="77.8226" x2="105.097" y2="64.524" gradientUnits="userSpaceOnUse">
<stop stop-color="#FA8039" stop-opacity="0.8"/>
<stop offset="0.042" stop-color="#FA8039" stop-opacity="0.759"/>
<stop offset="0.391" stop-color="#FA8039" stop-opacity="0.437"/>
<stop offset="0.678" stop-color="#FA8039" stop-opacity="0.201"/>
<stop offset="0.888" stop-color="#FA8039" stop-opacity="0.055"/>
<stop offset="1" stop-color="#FA8039" stop-opacity="0"/>
</linearGradient>
<linearGradient id="paint13_linear" x1="99.6079" y1="65.5356" x2="96.8827" y2="49.835" gradientUnits="userSpaceOnUse">
<stop stop-color="#FA8039" stop-opacity="0.8"/>
<stop offset="0.042" stop-color="#FA8039" stop-opacity="0.759"/>
<stop offset="0.391" stop-color="#FA8039" stop-opacity="0.437"/>
<stop offset="0.678" stop-color="#FA8039" stop-opacity="0.201"/>
<stop offset="0.888" stop-color="#FA8039" stop-opacity="0.055"/>
<stop offset="1" stop-color="#FA8039" stop-opacity="0"/>
</linearGradient>
<linearGradient id="paint14_linear" x1="90.6741" y1="54.9203" x2="88.6949" y2="42.1573" gradientUnits="userSpaceOnUse">
<stop stop-color="#FA8039" stop-opacity="0.8"/>
<stop offset="0.042" stop-color="#FA8039" stop-opacity="0.759"/>
<stop offset="0.391" stop-color="#FA8039" stop-opacity="0.437"/>
<stop offset="0.678" stop-color="#FA8039" stop-opacity="0.201"/>
<stop offset="0.888" stop-color="#FA8039" stop-opacity="0.055"/>
<stop offset="1" stop-color="#FA8039" stop-opacity="0"/>
</linearGradient>
<linearGradient id="paint15_linear" x1="4.93578" y1="13.1367" x2="32.4844" y2="12.6167" gradientUnits="userSpaceOnUse">
<stop stop-color="#FEC58E"/>
<stop offset="0.574" stop-color="#FFCFA7"/>
<stop offset="1" stop-color="#FFD4B5"/>
</linearGradient>
<linearGradient id="paint16_linear" x1="14.5945" y1="10.7387" x2="13.6052" y2="10.312" gradientUnits="userSpaceOnUse">
<stop stop-color="#79B12F"/>
<stop offset="0.401" stop-color="#6BA627"/>
<stop offset="1" stop-color="#4F8F16"/>
</linearGradient>
<radialGradient id="paint17_radial" cx="0" cy="0" r="1" gradientUnits="userSpaceOnUse" gradientTransform="translate(14.6799 10.7942) rotate(27.8973) scale(0.763516 1.36655)">
<stop stop-color="#95C642"/>
<stop offset="0.426" stop-color="#87BC38"/>
<stop offset="1" stop-color="#6EA927"/>
</radialGradient>
<linearGradient id="paint18_linear" x1="13.4911" y1="11.8587" x2="14.8471" y2="11.8587" gradientUnits="userSpaceOnUse">
<stop stop-color="#F0923A"/>
<stop offset="1" stop-color="#F58A3D"/>
</linearGradient>
<radialGradient id="paint19_radial" cx="0" cy="0" r="1" gradientUnits="userSpaceOnUse" gradientTransform="translate(11.0077 14.1182) rotate(-14.708) scale(4.53133 3.84257)">
<stop stop-color="#FFD783"/>
<stop offset="0.19" stop-color="#FECF70"/>
<stop offset="0.5" stop-color="#FCBF4A"/>
<stop offset="1" stop-color="#FC9545"/>
</radialGradient>
<radialGradient id="paint20_radial" cx="0" cy="0" r="1" gradientUnits="userSpaceOnUse" gradientTransform="translate(126.509 19.7721) rotate(-14.708) scale(18.7356 12.394)">
<stop stop-color="#FFD783"/>
<stop offset="0.19" stop-color="#FECF70"/>
<stop offset="0.5" stop-color="#FCBF4A"/>
<stop offset="1" stop-color="#FC9545"/>
</radialGradient>
<radialGradient id="paint21_radial" cx="0" cy="0" r="1" gradientUnits="userSpaceOnUse" gradientTransform="translate(94.595 30.5211) rotate(-14.708) scale(13.8069 9.13481)">
<stop stop-color="#FFD783"/>
<stop offset="0.19" stop-color="#FECF70"/>
<stop offset="0.5" stop-color="#FCBF4A"/>
<stop offset="1" stop-color="#FC9545"/>
</radialGradient>
<radialGradient id="paint22_radial" cx="0" cy="0" r="1" gradientUnits="userSpaceOnUse" gradientTransform="translate(168.669 25.694) rotate(-14.708) scale(28.8607 19.0947)">
<stop stop-color="#FFD783"/>
<stop offset="0.19" stop-color="#FECF70"/>
<stop offset="0.5" stop-color="#FCBF4A"/>
<stop offset="1" stop-color="#FC9545"/>
</radialGradient>
<radialGradient id="paint23_radial" cx="0" cy="0" r="1" gradientUnits="userSpaceOnUse" gradientTransform="translate(164.122 54.3827) rotate(-14.708) scale(36.8378 24.3704)">
<stop stop-color="#FFD783"/>
<stop offset="0.19" stop-color="#FECF70"/>
<stop offset="0.5" stop-color="#FCBF4A"/>
<stop offset="1" stop-color="#FC9545"/>
</radialGradient>
<linearGradient id="paint24_linear" x1="2.68645" y1="13.968" x2="12.4118" y2="14.6287" gradientUnits="userSpaceOnUse">
<stop stop-color="#DE5326"/>
<stop offset="0.12" stop-color="#DE5326" stop-opacity="0.855"/>
<stop offset="0.441" stop-color="#DE5326" stop-opacity="0.493"/>
<stop offset="0.704" stop-color="#DE5326" stop-opacity="0.227"/>
<stop offset="0.897" stop-color="#DE5326" stop-opacity="0.062"/>
<stop offset="1" stop-color="#DE5326" stop-opacity="0"/>
</linearGradient>
<radialGradient id="paint25_radial" cx="0" cy="0" r="1" gradientUnits="userSpaceOnUse" gradientTransform="translate(6.57624 17.0626) scale(23.492 11.84)">
<stop offset="0.347" stop-color="#8C7C6C"/>
<stop offset="0.53" stop-color="#877868"/>
<stop offset="0.741" stop-color="#796C5E"/>
<stop offset="0.966" stop-color="#62584D"/>
<stop offset="1" stop-color="#5E544A"/>
</radialGradient>
<linearGradient id="paint26_linear" x1="2.92871" y1="17.1614" x2="29.0247" y2="17.1614" gradientUnits="userSpaceOnUse">
<stop stop-color="#867767"/>
<stop offset="1" stop-color="#63594D"/>
</linearGradient>
<linearGradient id="paint27_linear" x1="13.8079" y1="20.074" x2="15.6613" y2="13.158" gradientUnits="userSpaceOnUse">
<stop stop-color="#928172"/>
<stop offset="0.793" stop-color="#8E7E6E"/>
<stop offset="1" stop-color="#8C7C6C"/>
</linearGradient>
<linearGradient id="paint28_linear" x1="15.7269" y1="20.9187" x2="16.2662" y2="5.76334" gradientUnits="userSpaceOnUse">
<stop stop-color="#A69381"/>
<stop offset="0.435" stop-color="#A28F7E"/>
<stop offset="0.887" stop-color="#958474"/>
<stop offset="1" stop-color="#918071"/>
</linearGradient>
<linearGradient id="paint29_linear" x1="62.4301" y1="68.5179" x2="72.9486" y2="64.7992" gradientUnits="userSpaceOnUse">
<stop stop-color="#79B12F"/>
<stop offset="0.401" stop-color="#6BA627"/>
<stop offset="1" stop-color="#4F8F16"/>
</linearGradient>
<radialGradient id="paint30_radial" cx="0" cy="0" r="1" gradientUnits="userSpaceOnUse" gradientTransform="translate(91.7462 88.0266) rotate(-26.039) scale(3.94382 12.2651)">
<stop stop-color="#95C642"/>
<stop offset="0.426" stop-color="#87BC38"/>
<stop offset="1" stop-color="#6EA927"/>
</radialGradient>
<linearGradient id="paint31_linear" x1="49.3483" y1="33.2993" x2="57.8778" y2="33.2993" gradientUnits="userSpaceOnUse">
<stop stop-color="#F0923A"/>
<stop offset="1" stop-color="#F58A3D"/>
</linearGradient>
</defs>
</svg>
