<svg width="32" height="32" viewBox="0 0 32 32" fill="none" xmlns="http://www.w3.org/2000/svg">
<path d="M22.2803 5.72135L15.9996 4.03735L9.71895 5.72202C8.48028 6.05402 7.39561 6.80602 6.65028 7.84935L3.98828 11.2867C3.98828 11.2867 5.32495 14.3193 7.80295 15.1767L8.74761 14.232C9.36828 15.9713 10.3509 18.2993 9.58695 21.53C9.28428 22.8087 7.84428 25.698 7.80228 27.6334C7.80228 27.6334 10.4089 29.1867 15.3029 29.3247L15.6129 29.1514L16.3449 29.1554L16.6943 29.3247C21.5883 29.1867 24.1949 27.6334 24.1949 27.6334C24.1536 25.698 22.7129 22.8087 22.4103 21.53C21.6463 18.3 22.6729 15.9934 23.2496 14.232L24.1943 15.1767C26.6503 14.3407 28.0196 11.3407 28.0196 11.3407L25.347 7.84935C24.6029 6.80602 23.5183 6.05402 22.2803 5.72135Z" fill="url(#paint0_radial)"/>
<path d="M16.696 29.3233V7.33331H15.3047V29.3233C15.534 29.33 15.762 29.34 16.0007 29.34C16.2394 29.34 16.4674 29.33 16.696 29.3233Z" fill="url(#paint1_radial)"/>
<path d="M18.6058 3.60135C17.9678 3.00068 16.0011 3.05202 16.0011 3.05202C16.0011 3.05202 14.0344 3.00068 13.3964 3.60135L12.8984 4.31668L13.0004 7.03668L14.6678 7.33335H16.0011H17.3344L19.0018 7.03602L19.1038 4.31602L18.6058 3.60135Z" fill="url(#paint2_linear)"/>
<path opacity="0.19" d="M13.9922 9.58003C13.0869 9.58003 12.3382 8.0007 11.9589 6.63536C11.6795 5.62936 12.3242 5.01669 12.3242 5.01669C12.3242 5.01669 15.1789 6.85736 16.0002 7.33336C16.0002 7.33336 15.1955 9.6447 13.9922 9.58003Z" fill="#66122E"/>
<path opacity="0.19" d="M18.008 9.58C18.9133 9.58 19.662 8.00067 20.0413 6.63533C20.3207 5.62933 19.672 5.02266 19.672 5.02266C19.672 5.02266 16.8213 6.85733 16 7.33333C16 7.33333 16.826 9.58 18.008 9.58Z" fill="#66122E"/>
<path d="M14.6474 8.96664L15.9993 7.33331C15.9993 7.33331 13.956 5.92531 13.3814 4.55864C13.1967 4.11864 13.394 3.60064 13.394 3.60064C13.394 3.60064 12.424 4.48731 12.1727 5.39997C11.924 6.30331 12.4607 7.76264 13.4647 8.98131C13.7694 9.35064 14.3427 9.33464 14.6474 8.96664ZM17.3513 8.96664L15.9993 7.33331C15.9993 7.33331 18.0427 5.92531 18.6173 4.55864C18.802 4.11864 18.6047 3.60064 18.6047 3.60064C18.6047 3.60064 19.5747 4.48731 19.826 5.39997C20.0747 6.30331 19.538 7.76264 18.534 8.98131C18.2293 9.35064 17.656 9.33464 17.3513 8.96664Z" fill="url(#paint3_radial)"/>
<path d="M16.0009 11.8786C16.1901 11.8786 16.3435 11.7252 16.3435 11.536C16.3435 11.3467 16.1901 11.1933 16.0009 11.1933C15.8116 11.1933 15.6582 11.3467 15.6582 11.536C15.6582 11.7252 15.8116 11.8786 16.0009 11.8786Z" fill="#C9266B"/>
<path d="M16.0009 15.466C16.1901 15.466 16.3435 15.3126 16.3435 15.1233C16.3435 14.9341 16.1901 14.7806 16.0009 14.7806C15.8116 14.7806 15.6582 14.9341 15.6582 15.1233C15.6582 15.3126 15.8116 15.466 16.0009 15.466Z" fill="#C9266B"/>
<path d="M16.0009 19.0527C16.1901 19.0527 16.3435 18.8993 16.3435 18.71C16.3435 18.5208 16.1901 18.3673 16.0009 18.3673C15.8116 18.3673 15.6582 18.5208 15.6582 18.71C15.6582 18.8993 15.8116 19.0527 16.0009 19.0527Z" fill="#C9266B"/>
<path d="M16.0009 22.64C16.1901 22.64 16.3435 22.4866 16.3435 22.2973C16.3435 22.1081 16.1901 21.9547 16.0009 21.9547C15.8116 21.9547 15.6582 22.1081 15.6582 22.2973C15.6582 22.4866 15.8116 22.64 16.0009 22.64Z" fill="#C9266B"/>
<path d="M16.0009 26.2267C16.1901 26.2267 16.3435 26.0732 16.3435 25.884C16.3435 25.6947 16.1901 25.5413 16.0009 25.5413C15.8116 25.5413 15.6582 25.6947 15.6582 25.884C15.6582 26.0732 15.8116 26.2267 16.0009 26.2267Z" fill="#C9266B"/>
<defs>
<radialGradient id="paint0_radial" cx="0" cy="0" r="1" gradientUnits="userSpaceOnUse" gradientTransform="translate(16.5478 15.0714) rotate(-1.84521) scale(15.0723 21.5294)">
<stop stop-color="#FF78AE"/>
<stop offset="0.223" stop-color="#FC74AB"/>
<stop offset="0.443" stop-color="#F568A1"/>
<stop offset="0.662" stop-color="#E85491"/>
<stop offset="0.879" stop-color="#D5397A"/>
<stop offset="1" stop-color="#C9266B"/>
</radialGradient>
<radialGradient id="paint1_radial" cx="0" cy="0" r="1" gradientUnits="userSpaceOnUse" gradientTransform="translate(16.0007 18.3366) scale(7.79603)">
<stop stop-color="#FFEDED"/>
<stop offset="0.863" stop-color="#FFEBEF"/>
</radialGradient>
<linearGradient id="paint2_linear" x1="16.0011" y1="1.94935" x2="16.0011" y2="7.27802" gradientUnits="userSpaceOnUse">
<stop offset="0.212" stop-color="#F2D3D3"/>
<stop offset="0.324" stop-color="#E4C3C5"/>
<stop offset="0.612" stop-color="#C5A0A5"/>
<stop offset="0.848" stop-color="#B28A91"/>
<stop offset="1" stop-color="#AB828A"/>
</linearGradient>
<radialGradient id="paint3_radial" cx="0" cy="0" r="1" gradientUnits="userSpaceOnUse" gradientTransform="translate(15.9993 6.42597) scale(8.27533)">
<stop stop-color="#FFEDED"/>
<stop offset="0.863" stop-color="#FFEBEF"/>
</radialGradient>
</defs>
</svg>
