<svg width="24" height="24" viewBox="0 0 24 24" fill="none" xmlns="http://www.w3.org/2000/svg">
<path d="M12 1.5C5.37188 1.5 0 5.86406 0 11.25C0 13.575 1.00313 15.7031 2.67188 17.3766C2.08594 19.7391 0.126563 21.8438 0.103125 21.8672C0 21.975 -0.028125 22.1344 0.0328125 22.275C0.09375 22.4156 0.225 22.5 0.375 22.5C3.48281 22.5 5.8125 21.0094 6.96563 20.0906C8.49844 20.6672 10.2 21 12 21C18.6281 21 24 16.6359 24 11.25C24 5.86406 18.6281 1.5 12 1.5ZM6.00937 14.25H5.4375C5.23125 14.25 5.0625 14.0813 5.0625 13.875V13.125C5.0625 12.9187 5.23125 12.75 5.4375 12.75H6.01406C6.29531 12.75 6.50156 12.5859 6.50156 12.4406C6.50156 12.3797 6.46406 12.3141 6.40313 12.2625L5.37656 11.3813C4.97812 11.0437 4.75313 10.5609 4.75313 10.0641C4.75313 9.06562 5.64375 8.25469 6.74063 8.25469H7.3125C7.51875 8.25469 7.6875 8.42344 7.6875 8.62969V9.37969C7.6875 9.58594 7.51875 9.75469 7.3125 9.75469H6.73594C6.45469 9.75469 6.24844 9.91875 6.24844 10.0641C6.24844 10.125 6.28594 10.1906 6.34687 10.2422L7.37344 11.1234C7.77188 11.4609 7.99688 11.9437 7.99688 12.4406C8.00156 13.4391 7.10625 14.25 6.00937 14.25ZM15 13.875C15 14.0813 14.8313 14.25 14.625 14.25H13.875C13.6687 14.25 13.5 14.0813 13.5 13.875V10.6781L12.3375 13.2938C12.2016 13.5703 11.8031 13.5703 11.6672 13.2938L10.5 10.6781V13.875C10.5 14.0813 10.3313 14.25 10.125 14.25H9.375C9.16875 14.25 9 14.0813 9 13.875V9C9 8.5875 9.3375 8.25 9.75 8.25H10.5C10.7859 8.25 11.0437 8.40938 11.1703 8.6625L12 10.3219L12.8297 8.6625C12.9563 8.40938 13.2188 8.25 13.5 8.25H14.25C14.6625 8.25 15 8.5875 15 9V13.875ZM17.2641 14.25H16.6875C16.4813 14.25 16.3125 14.0813 16.3125 13.875V13.125C16.3125 12.9187 16.4813 12.75 16.6875 12.75H17.2641C17.5453 12.75 17.7516 12.5859 17.7516 12.4406C17.7516 12.3797 17.7141 12.3141 17.6531 12.2625L16.6266 11.3813C16.2281 11.0437 16.0031 10.5609 16.0031 10.0641C16.0031 9.06562 16.8937 8.25469 17.9906 8.25469H18.5625C18.7687 8.25469 18.9375 8.42344 18.9375 8.62969V9.37969C18.9375 9.58594 18.7687 9.75469 18.5625 9.75469H17.9859C17.7047 9.75469 17.4984 9.91875 17.4984 10.0641C17.4984 10.125 17.5359 10.1906 17.5969 10.2422L18.6234 11.1234C19.0219 11.4609 19.2469 11.9437 19.2469 12.4406C19.2516 13.4391 18.3609 14.25 17.2641 14.25Z" fill="#10102C"/>
</svg>
