<svg width="24" height="25" viewBox="0 0 24 25" fill="none" xmlns="http://www.w3.org/2000/svg">
<path d="M0.590576 23.5312L2.19886 17.6631C1.20998 15.9459 0.68292 13.9954 0.688357 12.0013C0.688357 5.75268 5.77411 0.672363 12.0227 0.672363C15.0546 0.672363 17.9018 1.85146 20.0372 3.99224C22.178 6.13302 23.3571 8.98021 23.3517 12.0067C23.3517 18.2553 18.2658 23.3357 12.0173 23.3357H12.0119C10.1156 23.3357 8.25183 22.8576 6.59461 21.9555L0.590576 23.5312ZM6.87717 19.9016L7.21945 20.1081C8.66479 20.9666 10.322 21.4176 12.0119 21.423H12.0173C17.2064 21.423 21.4335 17.2011 21.4335 12.0067C21.4335 9.49096 20.4555 7.12743 18.6788 5.34514C16.902 3.56296 14.533 2.58496 12.0173 2.58496C6.82279 2.58496 2.59551 6.8068 2.59551 12.0012C2.59551 13.7781 3.08995 15.5113 4.03542 17.011L4.25817 17.3696L3.30736 20.8416L6.87717 19.9016Z" fill="black" fill-opacity="0.24"/>
<path d="M1.10425 22.9255L2.63894 17.3286C1.6926 15.687 1.19479 13.8253 1.19547 11.9304C1.19547 5.97398 6.04647 1.12842 11.9973 1.12842C14.8897 1.12842 17.5997 2.25529 19.6387 4.29436C21.6778 6.33351 22.7994 9.04879 22.7994 11.9357C22.7994 17.892 17.9484 22.7376 11.9974 22.7376H11.9921C10.1837 22.7376 8.40747 22.2815 6.82984 21.4229L1.10425 22.9256V22.9255Z" fill="url(#paint0_linear)"/>
<path d="M0.712402 23.3173L2.30071 17.5219C1.32412 15.8263 0.803527 13.8998 0.808965 11.9305C0.808965 5.7595 5.83162 0.742188 12.0027 0.742188C14.9969 0.742188 17.8087 1.90656 19.9177 4.02081C22.0318 6.13506 23.1963 8.94691 23.1909 11.9358C23.1909 18.1068 18.1683 23.1242 11.9972 23.1242H11.9919C10.1228 23.1234 8.28355 22.6548 6.6419 21.7611L0.712402 23.3174V23.3173ZM6.9209 19.7327L7.25897 19.9367C8.6864 20.7845 10.323 21.2299 11.9919 21.2353H11.9973C17.1218 21.2353 21.2967 17.0658 21.2967 11.9358C21.2967 9.45138 20.3308 7.11709 18.5761 5.35703C16.8214 3.59697 14.4817 2.63106 11.9973 2.63106C6.86728 2.63106 2.6925 6.8005 2.6925 11.9305C2.6925 13.6852 3.18075 15.397 4.1145 16.878L4.33453 17.2322L3.39543 20.6611L6.9209 19.7327Z" fill="white"/>
<path d="M9.20149 7.24567C8.99214 6.77879 8.77211 6.76801 8.57364 6.76267C8.41267 6.75732 8.22489 6.75732 8.03702 6.75732C7.84924 6.75732 7.54867 6.82707 7.29114 7.10607C7.03352 7.38517 6.31445 8.06129 6.31445 9.44045C6.31445 10.8141 7.31795 12.1449 7.45745 12.3326C7.59695 12.5205 9.39461 15.4343 12.2333 16.5558C14.5944 17.4896 15.0774 17.3017 15.5871 17.2534C16.1022 17.2051 17.2399 16.5773 17.476 15.9226C17.7067 15.268 17.7067 14.7099 17.6369 14.5918C17.5672 14.4737 17.3794 14.404 17.1003 14.2645C16.8213 14.125 15.4476 13.4488 15.1901 13.3523C14.9324 13.2557 14.7446 13.2128 14.5622 13.4918C14.3743 13.7708 13.8378 14.3986 13.6767 14.5865C13.5158 14.7743 13.3495 14.7957 13.0704 14.6562C12.7914 14.5167 11.8899 14.2215 10.822 13.2664C9.9903 12.5259 9.42686 11.6082 9.2658 11.3292C9.10483 11.0502 9.24977 10.8999 9.38927 10.7605C9.51264 10.637 9.66827 10.4331 9.80786 10.2721C9.94736 10.1111 9.99564 9.99311 10.0869 9.80523C10.1781 9.61745 10.1351 9.45648 10.0654 9.31698C9.99564 9.17739 9.44833 7.79832 9.20149 7.24567Z" fill="white"/>
<defs>
<linearGradient id="paint0_linear" x1="11.9514" y1="22.924" x2="11.9514" y2="1.12711" gradientUnits="userSpaceOnUse">
<stop stop-color="#20B038"/>
<stop offset="1" stop-color="#60D66A"/>
</linearGradient>
</defs>
</svg>
