 <svg width="83" height="21" viewBox="0 0 83 21" fill="none" xmlns="http://www.w3.org/2000/svg">
<path d="M3.278 15.84V0H0V15.84H3.278Z" fill="white"/>
<path d="M12.5527 13.53C10.8147 13.53 9.20872 12.848 8.79072 11.242H18.8007C18.9107 10.956 18.9767 10.516 18.9767 10.076C18.9767 6.644 16.0507 4.62 12.3327 4.62C8.39472 4.62 5.57872 6.886 5.57872 10.406C5.57872 13.882 8.48272 16.038 12.5747 16.038C15.5447 16.038 18.6247 14.938 18.9767 12.21H15.6987C15.3027 13.244 13.8727 13.53 12.5527 13.53ZM12.3327 6.996C14.0707 6.996 15.3027 7.766 15.6327 9.086H8.87872C9.31872 7.788 10.5287 6.996 12.3327 6.996Z" fill="white"/>
<path d="M33.4761 4.84H30.0001L26.6121 12.254H26.5241L23.1361 4.84H19.6381L24.9621 15.862V20.68H28.1521V15.818L33.4761 4.84Z" fill="white"/>
<path d="M48.6655 4.84H45.1895L41.8015 12.254H41.7135L38.3255 4.84H34.8275L40.1515 15.862V20.68H43.3415V15.818L48.6655 4.84Z" fill="white"/>
<path d="M56.1823 16.06C60.1203 16.06 62.9363 13.97 62.9363 10.34C62.9363 6.71 60.1203 4.62 56.1823 4.62C52.2003 4.62 49.4283 6.71 49.4283 10.34C49.4283 13.97 52.2003 16.06 56.1823 16.06ZM56.1823 13.574C54.0703 13.574 52.7503 12.254 52.7503 10.34C52.7503 8.426 54.0703 7.106 56.1823 7.106C58.2723 7.106 59.6143 8.426 59.6143 10.34C59.6143 12.254 58.2723 13.574 56.1823 13.574Z" fill="white"/>
<path d="M79.672 4.84L77.34 12.386H77.252L75.162 4.84H71.51L69.442 12.408H69.354L67 4.84H63.81L67.396 15.84H71.07L73.314 8.272H73.402L75.624 15.84H79.32L82.862 4.84H79.672Z" fill="white"/>
</svg>
